<?xml version="1.0" encoding="UTF-8" standalone="no"?>
<svg
   xmlns:dc="http://purl.org/dc/elements/1.1/"
   xmlns:cc="http://creativecommons.org/ns#"
   xmlns:rdf="http://www.w3.org/1999/02/22-rdf-syntax-ns#"
   xmlns:svg="http://www.w3.org/2000/svg"
   xmlns="http://www.w3.org/2000/svg"
   xmlns:sodipodi="http://sodipodi.sourceforge.net/DTD/sodipodi-0.dtd"
   xmlns:inkscape="http://www.inkscape.org/namespaces/inkscape"
   version="1.1"
   id="svg2"
   xml:space="preserve"
   width="57mm"
   height="52mm"
   viewBox="0 0 215.43302 196.53543"
   sodipodi:docname="logo-lespicantins-abrege-v2.svg"
   inkscape:version="1.0.2 (e86c870879, 2021-01-15, custom)"><metadata
     id="metadata8"><rdf:RDF><cc:Work
         rdf:about=""><dc:format>image/svg+xml</dc:format><dc:type
           rdf:resource="http://purl.org/dc/dcmitype/StillImage" /><dc:title></dc:title></cc:Work></rdf:RDF></metadata><defs
     id="defs6"><clipPath
       clipPathUnits="userSpaceOnUse"
       id="clipPath18"><path
         d="m 419.068,339.894 c -11.546,-1.836 -21.557,-6.78 -29.389,-15.575 v 0 c -8.05,-9.041 -10.667,-19.602 -7.336,-31.261 v 0 c 2.897,-10.132 9.425,-17.396 19.07,-21.751 v 0 l 2.386,-1.103 v -53.457 c 0,-10.016 -0.823,-15.094 -8.645,-15.094 v 0 -0.686 h 38.561 v 0.686 c -7.822,0 -8.508,5.078 -8.646,15.094 v 0 29.811 c 6.727,0.024 19.435,0.794 25.905,2.722 v 0 c 11.593,3.458 20.795,10.037 26.271,21.015 v 0 c 6.956,13.945 6.912,28.302 1.718,42.791 v 0 c -0.525,1.46 -1.302,2.83 -2.023,4.375 v 0 c -0.548,-0.42 -0.925,-0.675 -1.264,-0.972 v 0 c -6.375,-5.564 -11.547,-12.162 -16.354,-19.07 v 0 c -0.236,-0.34 -0.287,-0.857 -0.298,-1.296 v 0 c -0.102,-4.117 -0.043,-8.243 -0.292,-12.35 v 0 c -0.42,-6.88 -2.166,-13.434 -5.51,-19.499 v 0 c -5.251,-9.521 -11.28,-14.788 -22.323,-15.053 v 0 h -5.83 v 22.183 c 0.567,0.207 1.129,0.427 1.674,0.679 v 0 c 10.229,4.71 18.669,11.779 25.957,20.211 v 0 c 3.743,4.332 7.03,9.062 10.454,13.661 v 0 c 6.101,8.192 13.626,14.73 22.595,19.593 v 0 c 2.037,1.104 4.179,1.964 6.609,1.671 v 0 c 2.337,-0.283 4.235,-1.522 6.182,-2.689 v 0 c 0.95,-0.57 1.926,-1.164 2.97,-1.5 v 0 c 1.916,-0.617 4.53,0.58 5.099,2.182 v 0 c 0.534,1.502 -0.115,3.149 -2.475,4.332 v 0 c -0.342,0.171 -1.095,0.629 -2.443,0.797 v 0 c -1.272,0.16 -2.696,0.148 -4.678,-0.084 v 0 c -5.166,-0.604 -9.807,-2.804 -14.272,-5.351 v 0 c -2.299,-1.312 -4.512,-2.777 -6.772,-4.178 v 0 c -0.054,0.026 -0.139,0.041 -0.189,0.091 v 0 c -0.552,0.538 -1.101,1.078 -1.647,1.622 v 0 c -5.013,5.006 -10.376,9.53 -16.923,12.462 v 0 c -5.454,2.442 -11.171,3.914 -17.075,4.668 v 0 c -4.211,0.538 -8.436,0.95 -12.66,0.95 v 0 c -2.803,0 -5.606,-0.181 -8.407,-0.627 m -28.935,-59.172 c -4.052,4.747 -6.762,10.157 -7.664,16.401 v 0 c -1.49,10.315 1.416,19.294 8.384,26.928 v 0 c 7.5,8.216 16.982,12.832 27.858,14.676 v 0 c 5.48,0.928 10.972,0.936 16.385,-0.509 v 0 c 8.064,-2.151 13.64,-7.31 17.392,-14.61 v 0 c 2.791,-5.431 4.174,-11.297 5.364,-17.232 v 0 c 0.686,-3.429 -0.045,-6.326 -2.218,-9.155 v 0 c -6.87,-8.938 -15.028,-16.388 -24.761,-22.066 v 0 c -1.874,-1.093 -3.794,-2.056 -5.804,-2.865 v 0 8.955 c 0.138,10.153 -0.517,15.094 7.305,15.094 v 0 h 1.784 l 0.007,0.687 h -39.011 v -0.687 c 7.822,0 8.645,-4.941 8.645,-15.094 v 0 -10.091 c -5.055,1.758 -9.722,4.947 -13.666,9.568"
         id="path16" /></clipPath><linearGradient
       x1="0"
       y1="0"
       x2="1"
       y2="0"
       gradientUnits="userSpaceOnUse"
       gradientTransform="matrix(125.85146,0,0,-125.85146,380.93265,270.74359)"
       spreadMethod="pad"
       id="linearGradient34"><stop
         style="stop-opacity:1;stop-color:#be965e"
         offset="0"
         id="stop24" /><stop
         style="stop-opacity:1;stop-color:#be965e"
         offset="0.02514622"
         id="stop26" /><stop
         style="stop-opacity:1;stop-color:#fcca87"
         offset="0.627451"
         id="stop28" /><stop
         style="stop-opacity:1;stop-color:#fcca87"
         offset="0.68124422"
         id="stop30" /><stop
         style="stop-opacity:1;stop-color:#977040"
         offset="1"
         id="stop32" /></linearGradient><clipPath
       clipPathUnits="userSpaceOnUse"
       id="clipPath44"><path
         d="m 360.776,228.574 c 2.672,-0.34 6.832,0.35 9.983,0.903 v 0 c 6.334,1.111 11.476,1.959 14.723,-2.804 v 0 c -2.102,3.565 -4.925,4.935 -11.509,4.406 v 0 c -3.951,-0.318 -7.093,-1.344 -12.812,-0.94 v 0 c -1.32,0.095 -9.189,0.456 -10.044,8.185 v 0 c 0.005,-7.981 8.071,-9.54 9.659,-9.75"
         id="path42" /></clipPath><linearGradient
       x1="0"
       y1="0"
       x2="1"
       y2="0"
       gradientUnits="userSpaceOnUse"
       gradientTransform="matrix(34.364223,0,0,-34.364223,351.11719,232.49864)"
       spreadMethod="pad"
       id="linearGradient64"><stop
         style="stop-opacity:1;stop-color:#be965e"
         offset="0"
         id="stop50" /><stop
         style="stop-opacity:1;stop-color:#be965e"
         offset="0.01115862"
         id="stop52" /><stop
         style="stop-opacity:1;stop-color:#977040"
         offset="0.278431"
         id="stop54" /><stop
         style="stop-opacity:1;stop-color:#fcca87"
         offset="0.5687729"
         id="stop56" /><stop
         style="stop-opacity:1;stop-color:#fcca87"
         offset="0.627451"
         id="stop58" /><stop
         style="stop-opacity:1;stop-color:#fcca87"
         offset="0.68124422"
         id="stop60" /><stop
         style="stop-opacity:1;stop-color:#977040"
         offset="1"
         id="stop62" /></linearGradient><clipPath
       clipPathUnits="userSpaceOnUse"
       id="clipPath74"><path
         d="m 389.371,221.311 c -2.154,-4.734 -8.097,-1.031 -4.841,1.685 v 0 c 0.629,0.31 1.402,0.415 1.755,-0.09 v 0 c 0.453,-0.638 0.041,-1.205 -0.342,-1.672 v 0 c 1.526,0.55 1.264,2.239 -0.297,2.622 v 0 c -1.692,0.313 -2.931,-0.811 -3.285,-2.04 v 0 c -0.302,-1.017 0.128,-2.045 0.645,-2.727 v 0 c 3.557,-4.736 14.022,1.907 3.201,9.882 v 0 c 0.48,-0.372 4.621,-5.022 3.164,-7.66"
         id="path72" /></clipPath><linearGradient
       x1="0"
       y1="0"
       x2="1"
       y2="0"
       gradientUnits="userSpaceOnUse"
       gradientTransform="matrix(8.7193222,0,0,-8.7193222,382.26096,223.23772)"
       spreadMethod="pad"
       id="linearGradient94"><stop
         style="stop-opacity:1;stop-color:#be965e"
         offset="0"
         id="stop80" /><stop
         style="stop-opacity:1;stop-color:#be965e"
         offset="0.01115862"
         id="stop82" /><stop
         style="stop-opacity:1;stop-color:#977040"
         offset="0.278431"
         id="stop84" /><stop
         style="stop-opacity:1;stop-color:#fcca87"
         offset="0.5687729"
         id="stop86" /><stop
         style="stop-opacity:1;stop-color:#fcca87"
         offset="0.627451"
         id="stop88" /><stop
         style="stop-opacity:1;stop-color:#fcca87"
         offset="0.68124422"
         id="stop90" /><stop
         style="stop-opacity:1;stop-color:#977040"
         offset="1"
         id="stop92" /></linearGradient><clipPath
       clipPathUnits="userSpaceOnUse"
       id="clipPath104"><path
         d="m 392.624,217.48 c -1.239,-4.247 -2.626,-4.716 -1.375,-5.918 v 0 c 2.764,-1.695 5.729,7.593 -0.189,13.526 v 0 c 0,0 2.81,-3.363 1.564,-7.608"
         id="path102" /></clipPath><linearGradient
       x1="0"
       y1="0"
       x2="1"
       y2="0"
       gradientUnits="userSpaceOnUse"
       gradientTransform="matrix(3.7323189,0,0,-3.7323189,390.75711,218.22337)"
       spreadMethod="pad"
       id="linearGradient124"><stop
         style="stop-opacity:1;stop-color:#be965e"
         offset="0"
         id="stop110" /><stop
         style="stop-opacity:1;stop-color:#be965e"
         offset="0.01115862"
         id="stop112" /><stop
         style="stop-opacity:1;stop-color:#977040"
         offset="0.278431"
         id="stop114" /><stop
         style="stop-opacity:1;stop-color:#fcca87"
         offset="0.5687729"
         id="stop116" /><stop
         style="stop-opacity:1;stop-color:#fcca87"
         offset="0.627451"
         id="stop118" /><stop
         style="stop-opacity:1;stop-color:#fcca87"
         offset="0.68124422"
         id="stop120" /><stop
         style="stop-opacity:1;stop-color:#977040"
         offset="1"
         id="stop122" /></linearGradient><clipPath
       clipPathUnits="userSpaceOnUse"
       id="clipPath134"><path
         d="m 396.309,219.153 c 0.189,-1.16 0.255,-2.882 1.486,-3.022 v 0 c 0.562,-0.03 1.474,0.447 1.295,1.215 v 0 c -0.271,1.2 -2.387,3.005 -4.214,4.009 v 0 c 0.529,-0.735 1.303,-1.42 1.433,-2.202"
         id="path132" /></clipPath><linearGradient
       x1="0"
       y1="0"
       x2="1"
       y2="0"
       gradientUnits="userSpaceOnUse"
       gradientTransform="matrix(4.2367034,0,0,-4.2367034,394.87552,218.74222)"
       spreadMethod="pad"
       id="linearGradient154"><stop
         style="stop-opacity:1;stop-color:#be965e"
         offset="0"
         id="stop140" /><stop
         style="stop-opacity:1;stop-color:#be965e"
         offset="0.01115862"
         id="stop142" /><stop
         style="stop-opacity:1;stop-color:#977040"
         offset="0.278431"
         id="stop144" /><stop
         style="stop-opacity:1;stop-color:#fcca87"
         offset="0.5687729"
         id="stop146" /><stop
         style="stop-opacity:1;stop-color:#fcca87"
         offset="0.627451"
         id="stop148" /><stop
         style="stop-opacity:1;stop-color:#fcca87"
         offset="0.68124422"
         id="stop150" /><stop
         style="stop-opacity:1;stop-color:#977040"
         offset="1"
         id="stop152" /></linearGradient></defs><sodipodi:namedview
     pagecolor="#ffffff"
     bordercolor="#666666"
     borderopacity="1"
     objecttolerance="10"
     gridtolerance="10"
     guidetolerance="10"
     inkscape:pageopacity="0"
     inkscape:pageshadow="2"
     inkscape:window-width="1920"
     inkscape:window-height="1017"
     id="namedview4"
     showgrid="false"
     inkscape:zoom="1.0709318"
     inkscape:cx="561.26001"
     inkscape:cy="172.74677"
     inkscape:window-x="1272"
     inkscape:window-y="-8"
     inkscape:window-maximized="1"
     inkscape:current-layer="g10"
     inkscape:document-rotation="0"
     units="mm"
     width="73mm" /><g
     id="g10"
     inkscape:groupmode="layer"
     inkscape:label="logo-lespicantins"
     transform="matrix(1.3333333,0,0,-1.3333333,0,793.70133)"><g
       id="g12"
       transform="translate(-348.76171,250.71625)"><g
         id="g14"
         clip-path="url(#clipPath18)"><g
           id="g20"><g
             id="g22"><path
               d="m 419.068,339.894 c -11.546,-1.836 -21.557,-6.78 -29.389,-15.575 v 0 c -8.05,-9.041 -10.667,-19.602 -7.336,-31.261 v 0 c 2.897,-10.132 9.425,-17.396 19.07,-21.751 v 0 l 2.386,-1.103 v -53.457 c 0,-10.016 -0.823,-15.094 -8.645,-15.094 v 0 -0.686 h 38.561 v 0.686 c -7.822,0 -8.508,5.078 -8.646,15.094 v 0 29.811 c 6.727,0.024 19.435,0.794 25.905,2.722 v 0 c 11.593,3.458 20.795,10.037 26.271,21.015 v 0 c 6.956,13.945 6.912,28.302 1.718,42.791 v 0 c -0.525,1.46 -1.302,2.83 -2.023,4.375 v 0 c -0.548,-0.42 -0.925,-0.675 -1.264,-0.972 v 0 c -6.375,-5.564 -11.547,-12.162 -16.354,-19.07 v 0 c -0.236,-0.34 -0.287,-0.857 -0.298,-1.296 v 0 c -0.102,-4.117 -0.043,-8.243 -0.292,-12.35 v 0 c -0.42,-6.88 -2.166,-13.434 -5.51,-19.499 v 0 c -5.251,-9.521 -11.28,-14.788 -22.323,-15.053 v 0 h -5.83 v 22.183 c 0.567,0.207 1.129,0.427 1.674,0.679 v 0 c 10.229,4.71 18.669,11.779 25.957,20.211 v 0 c 3.743,4.332 7.03,9.062 10.454,13.661 v 0 c 6.101,8.192 13.626,14.73 22.595,19.593 v 0 c 2.037,1.104 4.179,1.964 6.609,1.671 v 0 c 2.337,-0.283 4.235,-1.522 6.182,-2.689 v 0 c 0.95,-0.57 1.926,-1.164 2.97,-1.5 v 0 c 1.916,-0.617 4.53,0.58 5.099,2.182 v 0 c 0.534,1.502 -0.115,3.149 -2.475,4.332 v 0 c -0.342,0.171 -1.095,0.629 -2.443,0.797 v 0 c -1.272,0.16 -2.696,0.148 -4.678,-0.084 v 0 c -5.166,-0.604 -9.807,-2.804 -14.272,-5.351 v 0 c -2.299,-1.312 -4.512,-2.777 -6.772,-4.178 v 0 c -0.054,0.026 -0.139,0.041 -0.189,0.091 v 0 c -0.552,0.538 -1.101,1.078 -1.647,1.622 v 0 c -5.013,5.006 -10.376,9.53 -16.923,12.462 v 0 c -5.454,2.442 -11.171,3.914 -17.075,4.668 v 0 c -4.211,0.538 -8.436,0.95 -12.66,0.95 v 0 c -2.803,0 -5.606,-0.181 -8.407,-0.627 m -28.935,-59.172 c -4.052,4.747 -6.762,10.157 -7.664,16.401 v 0 c -1.49,10.315 1.416,19.294 8.384,26.928 v 0 c 7.5,8.216 16.982,12.832 27.858,14.676 v 0 c 5.48,0.928 10.972,0.936 16.385,-0.509 v 0 c 8.064,-2.151 13.64,-7.31 17.392,-14.61 v 0 c 2.791,-5.431 4.174,-11.297 5.364,-17.232 v 0 c 0.686,-3.429 -0.045,-6.326 -2.218,-9.155 v 0 c -6.87,-8.938 -15.028,-16.388 -24.761,-22.066 v 0 c -1.874,-1.093 -3.794,-2.056 -5.804,-2.865 v 0 8.955 c 0.138,10.153 -0.517,15.094 7.305,15.094 v 0 h 1.784 l 0.007,0.687 h -39.011 v -0.687 c 7.822,0 8.645,-4.941 8.645,-15.094 v 0 -10.091 c -5.055,1.758 -9.722,4.947 -13.666,9.568"
               style="fill:url(#linearGradient34);stroke:none"
               id="path36" /></g></g></g></g><g
       id="g38"
       transform="translate(-348.76171,250.71625)"><g
         id="g40"
         clip-path="url(#clipPath44)"><g
           id="g46"><g
             id="g48"><path
               d="m 360.776,228.574 c 2.672,-0.34 6.832,0.35 9.983,0.903 v 0 c 6.334,1.111 11.476,1.959 14.723,-2.804 v 0 c -2.102,3.565 -4.925,4.935 -11.509,4.406 v 0 c -3.951,-0.318 -7.093,-1.344 -12.812,-0.94 v 0 c -1.32,0.095 -9.189,0.456 -10.044,8.185 v 0 c 0.005,-7.981 8.071,-9.54 9.659,-9.75"
               style="fill:url(#linearGradient64);stroke:none"
               id="path66" /></g></g></g></g><g
       id="g68"
       transform="translate(-348.76171,250.71625)"><g
         id="g70"
         clip-path="url(#clipPath74)"><g
           id="g76"><g
             id="g78"><path
               d="m 389.371,221.311 c -2.154,-4.734 -8.097,-1.031 -4.841,1.685 v 0 c 0.629,0.31 1.402,0.415 1.755,-0.09 v 0 c 0.453,-0.638 0.041,-1.205 -0.342,-1.672 v 0 c 1.526,0.55 1.264,2.239 -0.297,2.622 v 0 c -1.692,0.313 -2.931,-0.811 -3.285,-2.04 v 0 c -0.302,-1.017 0.128,-2.045 0.645,-2.727 v 0 c 3.557,-4.736 14.022,1.907 3.201,9.882 v 0 c 0.48,-0.372 4.621,-5.022 3.164,-7.66"
               style="fill:url(#linearGradient94);stroke:none"
               id="path96" /></g></g></g></g><g
       id="g98"
       transform="translate(-348.76171,250.71625)"><g
         id="g100"
         clip-path="url(#clipPath104)"><g
           id="g106"><g
             id="g108"><path
               d="m 392.624,217.48 c -1.239,-4.247 -2.626,-4.716 -1.375,-5.918 v 0 c 2.764,-1.695 5.729,7.593 -0.189,13.526 v 0 c 0,0 2.81,-3.363 1.564,-7.608"
               style="fill:url(#linearGradient124);stroke:none"
               id="path126" /></g></g></g></g><g
       id="g128"
       transform="translate(-348.76171,250.71625)"><g
         id="g130"
         clip-path="url(#clipPath134)"><g
           id="g136"><g
             id="g138"><path
               d="m 396.309,219.153 c 0.189,-1.16 0.255,-2.882 1.486,-3.022 v 0 c 0.562,-0.03 1.474,0.447 1.295,1.215 v 0 c -0.271,1.2 -2.387,3.005 -4.214,4.009 v 0 c 0.529,-0.735 1.303,-1.42 1.433,-2.202"
               style="fill:url(#linearGradient154);stroke:none"
               id="path156" /></g></g></g></g></g></svg>
