<?xml version="1.0" encoding="UTF-8" standalone="no"?>
<svg
   xmlns:dc="http://purl.org/dc/elements/1.1/"
   xmlns:cc="http://creativecommons.org/ns#"
   xmlns:rdf="http://www.w3.org/1999/02/22-rdf-syntax-ns#"
   xmlns:svg="http://www.w3.org/2000/svg"
   xmlns="http://www.w3.org/2000/svg"
   xmlns:sodipodi="http://sodipodi.sourceforge.net/DTD/sodipodi-0.dtd"
   xmlns:inkscape="http://www.inkscape.org/namespaces/inkscape"
   height="480pt"
   viewBox="-21 0 480 480"
   width="480pt"
   version="1.1"
   id="svg20"
   sodipodi:docname="editer-v2.svg"
   inkscape:version="1.0.2 (e86c870879, 2021-01-15, custom)">
  <metadata
     id="metadata26">
    <rdf:RDF>
      <cc:Work
         rdf:about="">
        <dc:format>image/svg+xml</dc:format>
        <dc:type
           rdf:resource="http://purl.org/dc/dcmitype/StillImage" />
        <dc:title></dc:title>
      </cc:Work>
    </rdf:RDF>
  </metadata>
  <defs
     id="defs24" />
  <sodipodi:namedview
     pagecolor="#ffffff"
     bordercolor="#666666"
     borderopacity="1"
     objecttolerance="10"
     gridtolerance="10"
     guidetolerance="10"
     inkscape:pageopacity="0"
     inkscape:pageshadow="2"
     inkscape:window-width="1920"
     inkscape:window-height="1017"
     id="namedview22"
     showgrid="false"
     inkscape:zoom="1.328125"
     inkscape:cx="320"
     inkscape:cy="350.11765"
     inkscape:window-x="1272"
     inkscape:window-y="-8"
     inkscape:window-maximized="1"
     inkscape:current-layer="svg20" />
  <path
     d="m211.457031 414.105469-79.199219 11.320312 11.308594-79.203125 169.738282-169.742187 22.640624-22.558594 11.277344-11.363281c5.777344-5.789063 12.9375-10 20.800782-12.238282 2.617187-.746093 5.292968-1.253906 8-1.519531v-104.800781c-.027344-8.824219-7.171876-15.972656-16-16h-248v80c0 8.835938-7.164063 16-16 16h-88v352c.027343 8.824219 7.175781 15.972656 16 16h336c8.828124-.027344 15.972656-7.175781 16-16v-206.480469l-164.558594 164.558594"
     fill="#9bc9ff"
     id="path2"
     style="stroke:#be965d;stroke-opacity:1;fill:#be965d;fill-opacity:1" />
  <g
     fill="#1e81ce"
     id="g18">
    <path
       d="m420.71875 136.902344c-9.773438-9.804688-22.863281-15.605469-36.695312-16.261719v-96.640625c0-13.253906-10.746094-24-24-24h-248c-.167969 0-.328126.078125-.496094.0976562-.636719.0390628-1.265625.1562498-1.871094.3515628-.269531.066406-.539062.148437-.800781.246093-.839844.34375-1.613281.828126-2.289063 1.433594l-104 96c-.710937.683594-1.285156 1.5-1.695312 2.398438-.117188.261718-.21875.527344-.304688.800781-.261718.714844-.417968 1.464844-.460937 2.222656 0 .167969-.105469.320313-.105469.488281v351.960938c0 13.253906 10.746094 24 24 24h336.023438c13.253906 0 24-10.746094 24-24v-203.199219l36.671874-36.671875c10.519532-10.503906 16.433594-24.761718 16.433594-39.628906s-5.914062-29.125-16.433594-39.628906zm-316.695312-110.628906v61.726562c0 4.417969-3.582032 8-8 8h-67.535157zm264 242.527343v187.199219c0 4.417969-3.582032 8-8 8h-336c-4.417969 0-8-3.582031-8-8v-344h80c13.253906 0 24-10.746094 24-24v-72h240c4.417968 0 8 3.582031 8 8v98.0625c-.703126.167969-1.429688.363281-2.175782.5625-9.183594 2.621094-17.550781 7.539062-24.304687 14.296875l-203.65625 203.664063c-.25.28125-.480469.574218-.695313.886718-.0625.09375-.144531.167969-.207031.261719-.65625.960937-1.089844 2.054687-1.28125 3.203125 0 .046875-.046875.078125-.054687.132812l-.074219.503907-11.199219 78.65625c-.328125 2.296875.355469 4.625 1.875 6.378906s3.726562 2.757813 6.046875 2.757813c.378906 0 .757813-.023438 1.136719-.078126l79.199218-11.3125c.144532 0 .253907-.128906.390626-.160156.449218-.078125.890624-.199218 1.320312-.351562.167969-.066406.320312-.152344.480469-.226563.375-.160156.734375-.347656 1.078125-.566406.160156-.105469.296875-.230469.449218-.351563.28125-.195312.546876-.410156.800782-.640624zm-168.6875 138.960938-44.449219 6.34375 5.648437-5.648438c3.03125-3.140625 2.988282-8.128906-.097656-11.214843-3.085938-3.085938-8.074219-3.128907-11.214844-.097657l-5.648437 5.648438 6.347656-44.417969 32.933594 16.464844 12.496093 24.945312zm6.703124-22.402344-7.480468-14.960937 97.746094-97.710938c2.078124-2.007812 2.914062-4.984375 2.179687-7.78125-.730469-2.796875-2.914063-4.980469-5.710937-5.710938-2.796876-.734374-5.773438.101563-7.78125 2.179688l-97.769532 97.746094-30.144531-15.121094 156.21875-156.199219 56.535156 56.597657-156.207031 156.175781zm175.105469-152.28125-56.511719-56.589844 11.304688-11.265625 56.535156 56.539063zm28.261719-28.277344-5.597656 5.597657-56.585938-56.503907 5.601563-5.679687c4.792969-4.796875 10.730469-8.300782 17.246093-10.175782 2.210938-.632812 4.472657-1.066406 6.761719-1.285156 16.863281-1.820312 33.039063 7.195313 40.363281 22.496094 7.324219 15.300781 4.203126 33.554688-7.789062 45.550781zm0 0"
       id="path4" />
    <path
       d="m330.246094 227.433594c-3.121094-3.125-8.1875-3.125-11.308594 0l-11.3125 11.308594c-2.082031 2.011718-2.914062 4.984374-2.183594 7.78125.734375 2.796874 2.917969 4.980468 5.714844 5.714843 2.796875.730469 5.769531-.101562 7.78125-2.183593l11.308594-11.3125c3.125-3.121094 3.125-8.1875 0-11.308594zm0 0"
       id="path6" />
    <path
       d="m64.023438 224h168c4.417968 0 8-3.582031 8-8s-3.582032-8-8-8h-168c-4.417969 0-8 3.582031-8 8s3.582031 8 8 8zm0 0"
       id="path8" />
    <path
       d="m64.023438 272h120c4.417968 0 8-3.582031 8-8s-3.582032-8-8-8h-120c-4.417969 0-8 3.582031-8 8s3.582031 8 8 8zm0 0"
       id="path10" />
    <path
       d="m144.023438 312c0-4.417969-3.582032-8-8-8h-72c-4.417969 0-8 3.582031-8 8s3.582031 8 8 8h72c4.417968 0 8-3.582031 8-8zm0 0"
       id="path12" />
    <path
       d="m128.023438 176h152c4.417968 0 8-3.582031 8-8s-3.582032-8-8-8h-152c-4.417969 0-8 3.582031-8 8s3.582031 8 8 8zm0 0"
       id="path14" />
    <path
       d="m64.023438 176h32c4.417968 0 8-3.582031 8-8s-3.582032-8-8-8h-32c-4.417969 0-8 3.582031-8 8s3.582031 8 8 8zm0 0"
       id="path16" />
  </g>
  <path
     style="fill:#422818;stroke:#422818;stroke-width:0.752941;fill-opacity:1;stroke-opacity:1"
     d="M 53.458824,638.97419 C 42.191917,636.52661 34.149048,629.38244 30.031649,618.16471 l -1.796355,-4.89412 V 374.58055 c 0,-237.40782 0.0081,-238.70262 1.505882,-241.03085 0.828236,-1.28744 33.115003,-31.51187 71.748374,-67.165403 55.03313,-50.788362 70.8472,-64.9925483 73.0353,-65.60024926 3.82622,-1.06266356 333.41172,-1.0873041 339.01141,-0.0253452 C 525.978,3.1182296 536.48061,13.29216 539.02404,25.448825 c 0.57425,2.744744 0.83478,24.509603 0.83478,69.738036 V 160.9349 l 4.70589,0.51755 c 30.51633,3.35615 55.57093,25.13515 63.62249,55.30456 1.63738,6.13533 1.93967,8.91261 1.97666,18.16064 0.0485,12.11708 -1.34581,19.59583 -5.49389,29.46856 -5.02208,11.95291 -7.69815,15.18105 -37.07812,44.72735 l -27.73303,27.89004 v 136.77878 c 0,97.22515 -0.2414,137.93262 -0.83478,140.7688 -2.54343,12.15666 -13.04604,22.33059 -25.48778,24.69012 -6.18186,1.17237 -454.649645,0.91199 -460.077436,-0.26711 z M 512.74046,617.52362 c 1.42962,-0.76672 3.28787,-2.31623 4.12943,-3.44337 1.52221,-2.03878 1.53111,-2.70467 1.72395,-129.05303 L 518.7877,358.02353 416.94679,459.78524 c -56.0125,55.96893 -102.53075,101.96405 -103.3739,102.21136 -2.63975,0.77429 -106.68909,15.50943 -109.49592,15.50647 -3.10489,-0.003 -6.95062,-2.13294 -8.71542,-4.82636 -0.68085,-1.03912 -1.2427,-3.34235 -1.24856,-5.11829 -0.0128,-3.88016 14.09765,-104.33981 15.25955,-108.64077 0.70781,-2.62011 18.69988,-20.91196 138.35583,-140.66105 83.23411,-83.2989 139.88648,-139.43011 143.47935,-142.15946 6.77278,-5.14499 13.75539,-8.85562 21.69726,-11.53012 l 5.49502,-1.8505 v -67.3738 c 0,-66.555216 -0.0186,-67.398697 -1.53011,-69.423055 -0.84156,-1.127091 -2.69981,-2.676568 -4.12943,-3.443284 -2.50657,-1.34429 -8.34209,-1.394028 -163.55224,-1.394028 H 188.23529 l -0.0149,47.623529 c -0.009,27.911605 -0.32879,49.795418 -0.77323,52.870758 -0.41708,2.88597 -1.57255,7.02574 -2.56772,9.19948 -2.05357,4.48561 -7.66123,10.84273 -11.97722,13.57803 -7.16893,4.54334 -4.0058,4.31797 -66.36104,4.7282 l -57.223525,0.37647 -0.220232,227.38824 c -0.121128,125.06353 -0.0116,229.17056 0.243385,231.34895 0.52522,4.48698 2.996432,8.04242 6.715989,9.66255 1.891803,0.82402 42.075726,1.00533 228.190253,1.02962 218.44516,0.0285 225.97981,-0.0165 228.49341,-1.36456 z M 264.65882,548.05091 c 15.32236,-2.14796 28.13629,-4.14783 28.47542,-4.44415 0.33912,-0.29632 -4.28482,-10.32436 -10.27543,-22.28453 l -10.89202,-21.74576 -21.87788,-10.88983 c -12.03283,-5.98941 -22.02128,-10.73294 -22.19656,-10.54118 -0.46184,0.50528 -8.6562,58.26553 -8.31886,58.63785 0.15584,0.17201 2.62261,-1.94564 5.48171,-4.70588 4.89294,-4.72373 5.40396,-5.01861 8.69722,-5.01861 8.14716,0 12.94278,6.64114 10.15906,14.06863 -0.43691,1.16579 -2.71336,4.06784 -5.05877,6.44902 -2.40046,2.43706 -3.78104,4.34043 -3.15855,4.35461 0.60821,0.0139 13.64231,-1.73222 28.96466,-3.88017 z M 417.50593,429.92937 521.40981,326.02345 483.57554,288.18917 445.74126,250.3549 341.83534,354.25878 c -57.14826,57.14713 -103.90593,104.15929 -103.90593,104.47146 0,0.31216 8.98033,5.05393 19.95629,10.53726 l 19.95628,9.96969 66.63355,-66.63036 66.63354,-66.63036 h 4.57391 c 4.3127,0 4.71975,0.15915 7.12777,2.78675 2.97991,3.25164 3.71418,5.55686 3.01119,9.45349 -0.45134,2.50178 -7.97086,10.28712 -66.90006,69.2651 l -66.39156,66.44652 9.96829,19.95348 c 5.48255,10.97442 10.22369,19.95348 10.53586,19.95348 0.31217,0 47.32432,-46.75767 104.47146,-103.90592 z m 96.19203,-171.85307 -37.82592,-37.82592 -7.54171,7.51341 -7.54171,7.51341 37.83729,37.84285 37.83729,37.84286 7.53034,-7.53034 7.53035,-7.53034 z m 67.12375,6.64195 c 5.6527,-8.51617 8.70508,-18.83353 8.70508,-29.42413 0,-8.54814 -1.66764,-15.47978 -5.7061,-23.71765 -2.9782,-6.07511 -4.54071,-8.17829 -10.36952,-13.95759 -11.07325,-10.97923 -21.77088,-15.38486 -37.35705,-15.38486 -15.61779,0 -25.93279,4.28007 -37.82586,15.69532 l -7.44566,7.14653 37.88282,37.92627 37.88282,37.92627 5.6904,-5.95623 c 3.12973,-3.27592 6.97411,-7.8902 8.54307,-10.25393 z M 161.73789,126.47575 c 1.43815,-0.87682 3.10177,-2.86446 3.93641,-4.70307 1.36899,-3.01576 1.44645,-5.39142 1.46211,-44.847187 0.0105,-26.449006 -0.24881,-41.571099 -0.71012,-41.411767 -0.76136,0.262971 -100.167466,91.796224 -100.167466,92.234314 0,0.13858 20.922352,0.2507 46.494116,0.24914 45.29628,-0.003 46.55829,-0.0419 48.98495,-1.52143 z"
     id="path28"
     transform="matrix(0.75,0,0,0.75,-21,0)" />
  <path
     style="fill:#422818;fill-opacity:1;stroke:#422818;stroke-width:0.752941;stroke-opacity:1"
     d="m 441.23854,335.24589 c -4.1006,-2.06021 -6.24401,-5.82224 -5.83262,-10.2372 0.32784,-3.51826 0.67711,-3.98941 9.6671,-13.04042 5.12984,-5.16465 10.24192,-9.87503 11.36018,-10.46751 7.28519,-3.85986 16.11227,3.17353 14.53771,11.58361 -0.41666,2.22551 -2.33085,4.61689 -9.67459,12.08638 -11.37082,11.56556 -14.23137,13.00243 -20.05778,10.07514 z"
     id="path853"
     transform="matrix(0.75,0,0,0.75,-21,0)" />
  <path
     style="fill:#422818;fill-opacity:1;stroke:#422818;stroke-width:0.752941;stroke-opacity:1"
     d="m 110.69434,298.15273 c -1.49209,-0.35428 -3.68368,-1.77994 -5.08235,-3.30615 -2.1681,-2.36581 -2.45905,-3.18505 -2.45905,-6.9241 0,-3.90322 0.22677,-4.46759 2.84862,-7.08944 2.37264,-2.37264 3.53639,-2.93026 6.96471,-3.33718 2.26384,-0.2687 54.26197,-0.38696 115.55138,-0.26279 110.48402,0.22383 111.45779,0.23883 114.07059,1.75725 6.91842,4.02063 6.80723,14.391 -0.19533,18.21754 -2.30137,1.25758 -8.8771,1.33997 -115.75762,1.45053 -62.3247,0.0645 -114.49813,-0.16308 -115.94095,-0.50566 z"
     id="path855"
     transform="matrix(0.75,0,0,0.75,-21,0)" />
  <path
     style="fill:#422818;fill-opacity:1;stroke:#422818;stroke-width:0.752941;stroke-opacity:1"
     d="m 196.72474,234.19324 c -5.71771,-1.37414 -9.00371,-5.95505 -8.25828,-11.51265 0.49515,-3.69163 2.16812,-6.2127 5.23475,-7.88845 2.30134,-1.25757 8.34324,-1.33332 106.34585,-1.33332 103.11943,0 103.92583,0.0116 106.54118,1.5315 6.91842,4.02063 6.80723,14.391 -0.19533,18.21754 -2.29778,1.25562 -8.40707,1.34018 -104.83997,1.45113 -56.32,0.0648 -103.49269,-0.14479 -104.8282,-0.46575 z"
     id="path857"
     transform="matrix(0.75,0,0,0.75,-21,0)" />
  <path
     style="fill:#422818;fill-opacity:1;stroke:#422818;stroke-width:0.752941;stroke-opacity:1"
     d="m 110.69434,234.17137 c -1.47076,-0.35966 -3.70368,-1.8204 -5.08235,-3.32479 -2.1681,-2.36581 -2.45905,-3.18505 -2.45905,-6.9241 0,-3.90322 0.22677,-4.46759 2.84862,-7.08944 3.72447,-3.72447 5.57341,-3.93513 31.78668,-3.62175 18.214,0.21774 21.00438,0.41051 23.18623,1.60173 7.1528,3.90522 7.1528,14.46874 0,18.37395 -2.2141,1.20884 -4.90507,1.36879 -25.06859,1.49006 -12.42353,0.0747 -23.76872,-0.15283 -25.21154,-0.50566 z"
     id="path859"
     transform="matrix(0.75,0,0,0.75,-21,0)" />
  <path
     style="fill:#422818;fill-opacity:1;stroke:#422818;stroke-width:0.752941;stroke-opacity:1"
     d="m 110.69434,362.15493 c -1.48958,-0.35493 -3.68603,-1.7847 -5.08235,-3.30835 -2.1681,-2.36581 -2.45905,-3.18505 -2.45905,-6.9241 0,-3.90322 0.22677,-4.46759 2.84862,-7.08944 2.37139,-2.37139 3.53819,-2.93086 6.96471,-3.33951 2.26384,-0.26999 39.86197,-0.38825 83.55138,-0.2628 78.30123,0.22484 79.47292,0.24996 82.07059,1.75959 6.91842,4.02063 6.80723,14.391 -0.19533,18.21754 -2.28814,1.25035 -7.50014,1.34075 -83.75762,1.45273 -44.7247,0.0657 -82.49813,-0.16187 -83.94095,-0.50566 z"
     id="path861"
     transform="matrix(0.75,0,0,0.75,-21,0)" />
  <path
     style="fill:#422818;fill-opacity:1;stroke:#422818;stroke-width:0.752941;stroke-opacity:1"
     d="m 110.69434,426.15966 c -1.4842,-0.35633 -3.69108,-1.79494 -5.08235,-3.31308 -2.1681,-2.36581 -2.45905,-3.18505 -2.45905,-6.9241 0,-3.90322 0.22677,-4.46759 2.84862,-7.08944 2.36863,-2.36862 3.54219,-2.93221 6.96471,-3.34471 2.26384,-0.27285 25.46197,-0.39111 51.55138,-0.2628 43.70457,0.21495 47.62719,0.33816 49.87526,1.56661 7.00256,3.82654 7.11375,14.19691 0.19533,18.21754 -2.57076,1.49399 -3.84318,1.53454 -51.95295,1.65563 -27.1247,0.0683 -50.49813,-0.15927 -51.94095,-0.50565 z"
     id="path863"
     transform="matrix(0.75,0,0,0.75,-21,0)" />
  <path
     style="fill:#be965d;fill-opacity:1;stroke:#be965d;stroke-width:0.752941;stroke-opacity:1"
     d="M 68.522079,126.25251 C 132.46468,67.170104 164.82256,37.647059 165.63552,37.647059 c 0.97643,0 1.01946,77.428161 0.0453,81.627851 -0.37575,1.62003 -1.72929,3.99179 -3.00786,5.27059 l -2.32464,2.32509 -46.47563,0.21069 c -39.557494,0.17933 -46.308161,0.056 -45.350641,-0.82877 z"
     id="path879"
     transform="matrix(0.75,0,0,0.75,-21,0)" />
</svg>
