<?xml version="1.0" encoding="UTF-8" standalone="no"?>
<svg
   xmlns:dc="http://purl.org/dc/elements/1.1/"
   xmlns:cc="http://creativecommons.org/ns#"
   xmlns:rdf="http://www.w3.org/1999/02/22-rdf-syntax-ns#"
   xmlns:svg="http://www.w3.org/2000/svg"
   xmlns="http://www.w3.org/2000/svg"
   xmlns:sodipodi="http://sodipodi.sourceforge.net/DTD/sodipodi-0.dtd"
   xmlns:inkscape="http://www.inkscape.org/namespaces/inkscape"
   height="511pt"
   viewBox="0 1 511 511.999"
   width="511pt"
   version="1.1"
   id="svg4"
   sodipodi:docname="home-v2.svg"
   inkscape:version="1.0.2 (e86c870879, 2021-01-15, custom)">
  <metadata
     id="metadata10">
    <rdf:RDF>
      <cc:Work
         rdf:about="">
        <dc:format>image/svg+xml</dc:format>
        <dc:type
           rdf:resource="http://purl.org/dc/dcmitype/StillImage" />
        <dc:title />
      </cc:Work>
    </rdf:RDF>
  </metadata>
  <defs
     id="defs8" />
  <sodipodi:namedview
     pagecolor="#ffffff"
     bordercolor="#666666"
     borderopacity="1"
     objecttolerance="10"
     gridtolerance="10"
     guidetolerance="10"
     inkscape:pageopacity="0"
     inkscape:pageshadow="2"
     inkscape:window-width="1920"
     inkscape:window-height="1017"
     id="namedview6"
     showgrid="false"
     inkscape:zoom="0.7071068"
     inkscape:cx="743.6459"
     inkscape:cy="127.88619"
     inkscape:window-x="1272"
     inkscape:window-y="-8"
     inkscape:window-maximized="1"
     inkscape:current-layer="svg4"
     inkscape:document-rotation="0" />
  <path
     d="m498.699219 222.695312c-.015625-.011718-.027344-.027343-.039063-.039062l-208.855468-208.847656c-8.902344-8.90625-20.738282-13.808594-33.328126-13.808594-12.589843 0-24.425781 4.902344-33.332031 13.808594l-208.746093 208.742187c-.070313.070313-.144532.144531-.210938.214844-18.28125 18.386719-18.25 48.21875.089844 66.558594 8.378906 8.382812 19.441406 13.234375 31.273437 13.746093.484375.046876.96875.070313 1.457031.070313h8.320313v153.695313c0 30.417968 24.75 55.164062 55.167969 55.164062h81.710937c8.285157 0 15-6.71875 15-15v-120.5c0-13.878906 11.292969-25.167969 25.171875-25.167969h48.195313c13.878906 0 25.167969 11.289063 25.167969 25.167969v120.5c0 8.28125 6.714843 15 15 15h81.710937c30.421875 0 55.167969-24.746094 55.167969-55.164062v-153.695313h7.71875c12.585937 0 24.421875-4.902344 33.332031-13.8125 18.359375-18.367187 18.367187-48.253906.027344-66.632813zm-21.242188 45.421876c-3.238281 3.238281-7.542969 5.023437-12.117187 5.023437h-22.71875c-8.285156 0-15 6.714844-15 15v168.695313c0 13.875-11.289063 25.164062-25.167969 25.164062h-66.710937v-105.5c0-30.417969-24.746094-55.167969-55.167969-55.167969h-48.195313c-30.421875 0-55.171875 24.75-55.171875 55.167969v105.5h-66.710937c-13.875 0-25.167969-11.289062-25.167969-25.164062v-168.695313c0-8.285156-6.714844-15-15-15h-22.328125c-.234375-.015625-.464844-.027344-.703125-.03125-4.46875-.078125-8.660156-1.851563-11.800781-4.996094-6.679688-6.679687-6.679688-17.550781 0-24.234375.003906 0 .003906-.003906.007812-.007812l.011719-.011719 208.847656-208.839844c3.234375-3.238281 7.535157-5.019531 12.113281-5.019531 4.574219 0 8.875 1.78125 12.113282 5.019531l208.800781 208.796875c.03125.03125.066406.0625.097656.09375 6.644531 6.691406 6.632813 17.539063-.03125 24.207032zm0 0"
     id="path2"
     style="fill:#fcca87;fill-opacity:1;stroke:none" />
  <path
     style="fill:#fcca87;stroke:none;stroke-width:0.801569;fill-opacity:1;stroke-opacity:1"
     d="m 134.94342,678.48627 c -26.31843,-4.8048 -48.756653,-24.33002 -56.603341,-49.2549 -0.902131,-2.86561 -1.935351,-6.11196 -2.296042,-7.21412 C 75.683345,620.9151 75.198705,570.95733 74.967058,511 L 74.545882,401.98667 63.323922,401.47412 C 50.602579,400.89309 44.733162,399.41224 34.823965,394.28365 20.829285,387.04058 10.03369,374.28147 4.7179897,358.70196 1.5898957,349.534 1.0597905,334.33504 3.5272575,324.56178 5.6412439,316.1886 9.4709037,308.06572 14.263092,301.79059 16.283158,299.14541 82.254119,232.72949 160.86523,154.19965 314.69638,0.52752802 306.94343,7.8865295 320.22667,2.9357182 c 8.00198,-2.98242961 15.54373,-4.0298836 25.38408,-3.52553219 12.80923,0.65651652 22.33015,3.98586539 32.72964,11.44515899 2.64518,1.897319 69.59298,68.314274 148.77288,147.593245 l 143.96346,144.14357 3.7535,7.39554 c 5.29944,10.44152 7.08245,17.71903 7.12368,29.07583 0.0406,11.20496 -1.40557,17.61285 -6.24147,27.65412 -6.09976,12.66549 -16.28897,22.85957 -28.84656,28.86032 -8.54368,4.08266 -14.03877,5.29286 -26.22653,5.77595 l -10.99673,0.43588 -0.27437,107.50863 c -0.30232,118.45664 0.0156,110.98914 -5.28864,124.21689 -8.55021,21.32247 -26.8808,37.62273 -49.39412,43.92316 -6.3407,1.77446 -7.10282,1.79777 -68.01502,2.0803 -67.84301,0.31467 -65.89507,0.43919 -72.01252,-4.60332 -1.59968,-1.31859 -3.75249,-4.11123 -4.78402,-6.20586 l -1.8755,-3.80842 -0.40078,-86.98783 -0.40079,-86.98783 -2.74841,-5.59335 c -4.75419,-9.67534 -13.52022,-16.53138 -23.9432,-18.72629 -2.74951,-0.57902 -16.47249,-0.89451 -38.90806,-0.89451 -37.29135,0 -39.55242,0.2053 -47.63536,4.32512 -7.73109,3.94048 -14.93104,13.36623 -16.97186,22.21856 -0.51755,2.24493 -0.81909,33.63883 -0.83445,86.87828 -0.0159,54.89393 -0.30724,84.38276 -0.85326,86.34878 -1.17846,4.24329 -5.45053,9.5029 -9.61969,11.84338 l -3.56963,2.00392 -60.51843,0.13823 c -48.80965,0.11149 -61.70495,-0.0784 -66.65109,-0.98137 z m 102.0989,-114.78313 0.23237,-76.7502 2.24222,-7.17457 c 8.06671,-25.81144 27.28895,-44.40642 52.80083,-51.0778 6.30029,-1.64753 8.78256,-1.76099 45.08698,-2.06079 40.35301,-0.33325 47.2784,0.0426 57.76861,3.13543 25.14392,7.41311 45.05489,29.26364 50.4281,55.34041 1.10967,5.38531 1.27308,15.75138 1.27308,80.75804 v 74.57967 h 46.32257 c 50.36936,0 51.38518,-0.0778 59.63355,-4.56712 5.101,-2.77631 11.48673,-9.6171 13.8797,-14.8688 1.05516,-2.31569 2.29538,-6.55494 2.75605,-9.42055 0.55395,-3.44583 0.83964,-43.96705 0.84365,-119.65986 0.006,-126.34319 -0.35927,-117.43541 5.05648,-123.08528 5.63039,-5.8738 6.63923,-6.09536 29.8178,-6.54847 23.49041,-0.45922 24.62409,-0.70237 30.61342,-6.5659 4.60292,-4.50623 6.93571,-10.10606 6.946,-16.67382 0.0162,-10.3453 10.37718,0.71216 -144.80018,-154.53427 C 339.49829,26.013465 352.29361,37.89783 340.87537,38.643416 337.0669,38.8921 333.80913,39.647615 331.44863,40.829581 328.82181,42.144899 289.45841,81.007888 186.6009,183.83591 29.945668,340.44624 41.28677,328.29853 41.306219,339.46431 c 0.01573,9.03333 4.716305,16.68548 12.65023,20.59356 3.554202,1.75072 4.878785,1.87197 24.597276,2.25157 19.899936,0.38311 20.999151,0.48568 24.348685,2.27226 4.14079,2.20861 6.83654,4.94855 9.19923,9.35006 l 1.72111,3.20628 0.40078,119.07505 0.40078,119.07506 2.99364,6.05666 c 3.17809,6.42986 7.38333,10.95882 13.50853,14.54842 7.46611,4.37545 8.44473,4.45018 59.01889,4.50735 l 46.66458,0.0528 0.23237,-76.7502 z"
     id="path843"
     transform="matrix(0.75146627,0,0,0.75146627,-0.4995,1)" />
  <path
     style="fill:#fcca87;stroke:none;stroke-width:0.100196;fill-opacity:1"
     d=""
     id="path845"
     transform="matrix(0.75146627,0,0,0.75146627,-0.4995,1)" />
  <path
     style="fill:#fcca87;stroke:none;stroke-width:0.100196;fill-opacity:1"
     d="m 284.99068,29.69432 c 14.16622,-14.148303 15.71607,-15.637262 18.60533,-17.874383 1.96641,-1.522578 5.54344,-3.9657473 5.65009,-3.8591036 0.0242,0.024218 -0.41855,0.4002334 -0.98393,0.8355899 -3.71569,2.8611917 -10.64583,9.1669957 -20.41182,18.5729347 -3.38354,3.258795 -14.38448,14.012948 -15.88328,15.526969 -0.55004,0.555631 -1.04601,1.009699 -1.10215,1.009039 -0.0562,-6.59e-4 6.30045,-6.395629 14.12576,-14.211046 z"
     id="path847"
     transform="matrix(0.75146627,0,0,0.75146627,-0.4995,1)" />
  <path
     style="fill:#fcca87;stroke:none;stroke-width:0.100196;fill-opacity:1"
     d="m 288.09676,26.704579 c 5.89654,-5.888451 11.37416,-11.2916 12.17248,-12.006997 0.79833,-0.715398 1.62009,-1.463394 1.82613,-1.662215 0.20604,-0.19882 0.39313,-0.342983 0.41575,-0.320361 0.0226,0.02262 0.13349,-0.07629 0.24638,-0.2198 0.11289,-0.143513 0.23065,-0.258742 0.26169,-0.256065 0.031,0.0027 0.5957,-0.397336 1.25479,-0.888916 0.65909,-0.49158 1.77513,-1.287344 2.48008,-1.7683643 0.70494,-0.4810207 1.33808,-0.9439788 1.40697,-1.0287958 0.0689,-0.084817 0.12668,-0.1117789 0.12843,-0.059915 0.002,0.051864 0.065,0.012695 0.14067,-0.087041 0.0756,-0.099737 0.16411,-0.1382699 0.19664,-0.08563 0.0325,0.05264 -0.3802,0.4483823 -0.91719,0.8794274 -2.21489,1.7779017 -6.51723,5.5304477 -7.82401,6.8241697 -0.34952,0.346036 -0.66514,0.630005 -0.70137,0.631041 -0.0362,10e-4 -0.6699,0.580262 -1.40815,1.287167 -0.73826,0.706906 -1.35271,1.280933 -1.36545,1.275614 -0.0888,-0.03705 -8.85958,8.378235 -14.76148,14.163075 -2.22361,2.179512 -4.09477,3.977853 -4.15814,3.996315 -0.0634,0.01846 4.70924,-4.784257 10.60578,-10.672709 z"
     id="path849"
     transform="matrix(0.75146627,0,0,0.75146627,-0.4995,1)" />
  <path
     style="fill:#fcca87;stroke:none;stroke-width:0.100196;fill-opacity:1"
     d="m 433.93144,64.889418 c -11.4885,-11.52717 -46.89567,-46.4419 -52.5251,-51.794585 -0.97707,-0.92904 -1.75633,-1.709328 -1.73168,-1.733973 0.0573,-0.05725 2.14885,1.62051 3.70857,2.974798 1.29367,1.123281 53.47165,53.216363 53.30361,53.216874 -0.0555,2e-4 -1.29543,-1.198232 -2.7554,-2.663114 z"
     id="path855"
     transform="matrix(0.75146627,0,0,0.75146627,-0.4995,1)" />
  <path
     style="fill:#fcca87;fill-opacity:1;stroke:none;stroke-width:0.00626225;stroke-opacity:1"
     d="m 293.34847,21.476215 c 0.0984,-0.09715 0.57888,-0.572575 1.06772,-1.056506 2.90222,-2.873093 4.89499,-4.825303 5.66701,-5.551694 0.055,-0.05179 0.27057,-0.247605 0.47894,-0.435141 0.58476,-0.526277 1.22676,-1.109983 1.34416,-1.222104 l 0.0447,-0.04273 h 0.53939 0.5394 l -0.32112,0.283102 c -1.25948,1.110397 -2.17645,1.944926 -2.75093,2.503601 -0.40353,0.392423 -0.70531,0.66711 -0.76706,0.698188 -0.085,0.04275 -0.58272,0.497431 -1.44658,1.321357 -0.87008,0.829855 -1.27481,1.206694 -1.34099,1.248592 -0.0761,0.04816 -0.42584,0.366074 -1.15122,1.0464 -0.28331,0.265706 -1.10033,1.038192 -1.34655,1.27314 l -0.11585,0.11055 -0.30999,-6.3e-5 -0.30998,-6.2e-5 0.17892,-0.176634 z"
     id="path857"
     transform="matrix(0.75146627,0,0,0.75146627,-0.4995,1)" />
  <path
     style="fill:#fcca87;fill-opacity:1;stroke:none;stroke-width:0.00626225;stroke-opacity:1"
     d="m 293.10086,21.615252 c 0.0621,-0.06339 1.74068,-1.72522 2.21351,-2.191436 2.98197,-2.940249 4.69904,-4.578458 5.99611,-5.720722 0.38823,-0.341887 0.61486,-0.535049 0.62778,-0.535049 0.005,0 0.009,9.28e-4 0.007,0.0021 -0.001,0.0011 -0.0463,0.04273 -0.0997,0.09243 -0.18279,0.170172 -0.58719,0.537721 -1.2725,1.15655 -0.40665,0.367196 -0.49088,0.444555 -0.6688,0.614235 -1.00744,0.960778 -2.81975,2.740244 -6.36758,6.25217 l -0.37166,0.367908 h -0.0509 -0.0509 z"
     id="path859"
     transform="matrix(0.75146627,0,0,0.75146627,-0.4995,1)" />
  <path
     style="fill:#fcca87;fill-opacity:1;stroke:none;stroke-width:0.00626225;stroke-opacity:1"
     d="m 295.56486,19.096308 c 1.40698,-1.406379 2.65124,-2.647001 2.76503,-2.756938 1.15536,-1.116237 2.20998,-2.066831 3.43716,-3.098135 l 0.0871,-0.07319 0.035,6.9e-5 0.035,6.9e-5 -0.0218,0.01715 c -0.13061,0.102654 -0.83172,0.719611 -1.24315,1.093936 -1.22679,1.116158 -3.11912,2.936332 -5.48563,5.27644 -0.6613,0.653924 -2.0089,1.988775 -2.06026,2.040767 -0.0523,0.05298 -0.058,0.05692 -0.0814,0.0569 l -0.0252,-1.9e-5 z"
     id="path861"
     transform="matrix(0.75146627,0,0,0.75146627,-0.4995,1)" />
  <path
     style="fill:#fcca87;fill-opacity:1;stroke:none;stroke-width:0.00626225;stroke-opacity:1"
     d="m 293.85541,21.638661 c 0.009,-0.0081 0.18882,-0.177912 0.40064,-0.377346 1.91485,-1.802875 3.24735,-3.043742 4.88143,-4.545767 0.0379,-0.03482 0.10337,-0.09215 0.14552,-0.127382 0.1185,-0.09907 0.25379,-0.223378 0.5116,-0.470087 0.28005,-0.26799 1.87428,-1.708892 2.88634,-2.608742 0.29667,-0.263782 0.38444,-0.338596 0.39904,-0.340136 0.0187,-0.002 0.0186,-0.0019 -0.0112,0.02554 -0.0165,0.01513 -0.14123,0.125854 -0.27727,0.246047 -2.23722,1.976495 -5.20592,4.707497 -8.52741,7.844631 -0.32147,0.303629 -0.39263,0.367981 -0.4069,0.367981 h -0.0173 z"
     id="path863"
     transform="matrix(0.75146627,0,0,0.75146627,-0.4995,1)" />
  <path
     style="fill:#fcca87;fill-opacity:1;stroke:none;stroke-width:0.00626225;stroke-opacity:1"
     d="m 297.38092,18.325929 c 0,-0.0027 0.75292,-0.717948 0.98317,-0.933974 0.47092,-0.441825 0.80274,-0.735834 0.83047,-0.735834 0.003,0 -0.0159,0.01902 -0.0415,0.04227 -0.17265,0.156771 -1.24191,1.143225 -1.59491,1.471403 -0.1537,0.142884 -0.17723,0.163616 -0.17723,0.156135 z"
     id="path865"
     transform="matrix(0.75146627,0,0,0.75146627,-0.4995,1)" />
  <path
     style="fill:#fcca87;fill-opacity:1;stroke:none;stroke-width:0.00626225;stroke-opacity:1"
     d="m 295.6683,18.993213 c 1.46386,-1.462779 2.73337,-2.728495 2.82114,-2.812703 0.24106,-0.231273 0.36073,-0.345255 0.45094,-0.429514 0.0294,-0.02743 0.0984,-0.09239 0.15343,-0.14436 0.055,-0.05197 0.12284,-0.115374 0.15072,-0.1409 0.0279,-0.02553 0.0913,-0.08424 0.1409,-0.130487 0.14508,-0.135207 0.15214,-0.141729 0.30626,-0.282656 0.26571,-0.242968 0.70875,-0.640737 0.764,-0.68592 0.012,-0.0099 0.0374,-0.03241 0.0564,-0.05012 0.0189,-0.0177 0.0457,-0.04172 0.0595,-0.05336 0.0138,-0.01164 0.0363,-0.0314 0.0501,-0.0439 0.0138,-0.0125 0.0448,-0.03913 0.0689,-0.05917 0.0487,-0.04046 0.129,-0.110825 0.17221,-0.150852 0.0155,-0.01436 0.0366,-0.03263 0.047,-0.04061 0.0173,-0.01336 0.31614,-0.269944 0.36637,-0.314574 0.0121,-0.01073 0.0462,-0.03975 0.0759,-0.0645 0.0297,-0.02475 0.0578,-0.0487 0.0626,-0.05323 0.0119,-0.01128 0.12234,-0.105762 0.18715,-0.1601 0.0293,-0.02455 0.0967,-0.08143 0.14986,-0.126417 l 0.0966,-0.08179 h 0.59065 c 0.32486,0 0.59065,0.0011 0.59065,0.0025 0,0.0014 -0.11619,0.104919 -0.25821,0.230138 -1.10617,0.975312 -1.92739,1.717587 -2.49642,2.256435 -0.23646,0.223914 -0.30662,0.293368 -0.1761,0.174333 0.48051,-0.438242 0.8904,-0.809202 1.4591,-1.320526 0.9519,-0.855852 1.38206,-1.237747 1.48311,-1.316688 l 0.0334,-0.02609 2.2351,-5.1e-5 2.23511,-5.1e-5 v 4.242694 4.242695 h -6.83312 -6.83313 l 0.0495,-0.04759 c 0.0293,-0.02818 0.0345,-0.0344 0.0126,-0.01525 -0.058,0.0508 -0.0773,0.06396 -0.0903,0.06176 -0.009,-0.0015 0.0432,-0.05403 0.20435,-0.205569 0.11905,-0.111938 0.3632,-0.341606 0.54256,-0.510374 0.46323,-0.435873 1.27095,-1.192961 1.61286,-1.511746 0.30721,-0.286434 0.37536,-0.351577 0.28806,-0.275333 -0.0293,0.02557 -0.0645,0.05481 -0.0783,0.06497 -0.0954,0.07038 -0.28817,0.24067 -0.58865,0.519946 -0.49581,0.460824 -1.05784,0.989691 -1.6715,1.57288 l -0.36373,0.345672 h -0.39452 -0.39453 l 2.66157,-2.659599 z m 0.36937,-0.283073 c 0.006,-0.0069 0.01,-0.01252 0.008,-0.01252 -0.002,0 -0.008,0.0056 -0.0145,0.01252 -0.006,0.0069 -0.01,0.01253 -0.008,0.01253 0.002,0 0.008,-0.0056 0.0145,-0.01253 z m 1.03014,-0.08454 c 0.008,-0.0086 0.0133,-0.01566 0.0116,-0.01566 -0.002,0 -0.01,0.007 -0.0178,0.01566 -0.008,0.0086 -0.0133,0.01566 -0.0116,0.01566 0.002,0 0.01,-0.007 0.0178,-0.01566 z m 0.10645,-0.100196 c 0.0187,-0.01894 0.0326,-0.03444 0.0309,-0.03444 -0.002,0 -0.0184,0.0155 -0.0371,0.03444 -0.0187,0.01894 -0.0326,0.03444 -0.0309,0.03444 0.002,0 0.0184,-0.0155 0.0371,-0.03444 z m 0.20666,-0.195638 c 0,-0.0048 -0.094,0.08189 -0.13151,0.121175 -0.0189,0.01987 0.003,0.0014 0.0485,-0.04105 0.0456,-0.04245 0.083,-0.0785 0.083,-0.08012 z"
     id="path867"
     transform="matrix(0.75146627,0,0,0.75146627,-0.4995,1)" />
  <path
     style="fill:#fcca87;fill-opacity:1;stroke:none;stroke-width:0.00626225;stroke-opacity:1"
     d="m 300.43064,15.514998 c 0.32589,-0.312223 1.30226,-1.193701 2.20744,-1.992922 0.12055,-0.106436 0.25914,-0.229636 0.30798,-0.273776 0.0522,-0.04717 0.094,-0.08026 0.10147,-0.08026 0.0117,0 0.0114,0.0013 -0.004,0.0171 -0.009,0.0094 -0.0338,0.03117 -0.0545,0.04837 -0.17325,0.144205 -1.61135,1.432063 -2.39687,2.146469 -0.11279,0.102581 -0.20719,0.186399 -0.20978,0.186263 -0.003,-1.36e-4 0.0192,-0.02319 0.0485,-0.05124 z"
     id="path869"
     transform="matrix(0.75146627,0,0,0.75146627,-0.4995,1)" />
  <path
     style="fill:#fcca87;fill-opacity:1;stroke:none;stroke-width:0.00626225;stroke-opacity:1"
     d="m 294.23727,20.418194 c 3.36164,-3.357005 4.22095,-4.213113 4.40236,-4.385977 1.02889,-0.98039 1.88626,-1.749403 3.02467,-2.712947 l 0.17848,-0.15106 0.60937,-8.3e-5 c 0.4857,-6.6e-5 0.60848,0.0015 0.60495,0.0077 -0.004,0.0063 -0.003,0.0063 0.004,0 0.007,-0.0062 0.4646,-0.0078 2.24593,-0.0078 h 2.23751 v 4.242677 4.242678 h -6.83289 c -6.43372,0 -6.83238,-6.2e-4 -6.82429,-0.01066 0.008,-0.01004 0.008,-0.01004 -0.007,0 -0.009,0.0059 -0.0226,0.01052 -0.0313,0.01035 -0.0185,-3.57e-4 -0.0544,0.03498 0.40753,-0.400566 0.48084,-0.453347 1.0832,-1.018617 1.62753,-1.527328 0.27037,-0.25268 0.50286,-0.470719 0.51664,-0.484533 l 0.025,-0.02511 -0.0376,0.02835 c -0.16563,0.124972 -1.01318,0.912056 -2.27633,2.113933 l -0.30998,0.294946 -0.40078,2.5e-4 -0.40079,2.51e-4 1.2368,-1.235088 z m 6.14327,-4.850356 c 0,-0.004 -0.0822,0.06995 -0.1002,0.09006 -0.009,0.0096 0.0104,-0.0061 0.0423,-0.03494 0.0319,-0.02886 0.0579,-0.05367 0.0579,-0.05512 z"
     id="path871"
     transform="matrix(0.75146627,0,0,0.75146627,-0.4995,1)" />
  <path
     style="fill:#fcca87;fill-opacity:1;stroke:none;stroke-width:0.00626225;stroke-opacity:1"
     d="m 293.81143,21.650603 c 0,-0.0029 0.56823,-0.543839 0.97067,-0.924083 0.83991,-0.793565 1.51562,-1.417117 1.52524,-1.407498 0.002,0.0017 -0.3006,0.287329 -0.67168,0.634835 -0.98348,0.920993 -1.63477,1.533737 -1.72412,1.622069 -0.0431,0.04261 -0.0833,0.07747 -0.0892,0.07747 -0.006,0 -0.0109,-0.0013 -0.0109,-0.0028 z"
     id="path873"
     transform="matrix(0.75146627,0,0,0.75146627,-0.4995,1)" />
  <path
     style="fill:#fcca87;fill-opacity:1;stroke:none;stroke-width:0.00390625;stroke-opacity:1"
     d="m 293.10594,21.719704 0.0605,-0.06055 -0.0507,-4.14e-4 c -0.0279,-2.26e-4 -0.0663,-0.0015 -0.0854,-0.0029 l -0.0347,-0.0025 1.77297,-1.76946 c 0.97513,-0.973202 2.07179,-2.067211 2.43702,-2.431129 0.36523,-0.363919 0.73198,-0.730015 0.815,-0.813548 l 0.15093,-0.151878 h 2.61176 2.61176 v 2.646484 2.646485 l -4.82519,-3.9e-5 -4.8252,-4e-5 0.0703,-0.06845 c 0.0409,-0.0398 0.0653,-0.06605 0.0583,-0.06271 -0.008,0.0037 -0.0231,0.0056 -0.043,0.0054 -0.017,-1.95e-4 -0.0353,0.001 -0.0407,0.0028 -0.005,0.0017 -0.0381,0.03011 -0.0727,0.06311 l -0.063,0.06001 h -0.30417 -0.30417 z m 3.24414,-2.43594 c 0.014,-0.01472 0.0157,-0.01741 0.006,-0.0095 -0.034,0.0275 -0.0469,0.03911 -0.0469,0.04222 0,0.0054 0.0199,-0.0105 0.041,-0.03274 z"
     id="path875"
     transform="matrix(0.75146627,0,0,0.75146627,-0.4995,1)" />
  <path
     style="fill:#fcca87;fill-opacity:1;stroke:none;stroke-width:0.00390625;stroke-opacity:1"
     d="m 293.09965,21.722088 0.0581,-0.05816 -0.0581,-0.0026 c -0.032,-0.0014 -0.0691,-0.0038 -0.0826,-0.0053 l -0.0245,-0.0027 1.97954,-1.974956 c 1.08874,-1.086225 2.25375,-2.248523 2.58891,-2.582883 l 0.60937,-0.607927 2.61231,-1.25e-4 2.6123,-1.24e-4 v 2.646484 2.646485 h -4.8259 -4.8259 l 0.0622,-0.06119 c 0.0342,-0.03365 0.0615,-0.06195 0.0606,-0.06289 -9.4e-4,-9.34e-4 -0.0187,-4.21e-4 -0.0396,0.0011 l -0.0379,0.0028 -0.0259,0.02232 c -0.0142,0.01228 -0.0437,0.0393 -0.0655,0.06005 l -0.0396,0.03772 h -0.30799 -0.30798 z"
     id="path877"
     transform="matrix(0.75146627,0,0,0.75146627,-0.4995,1)" />
</svg>
