<?xml version="1.0" encoding="UTF-8" standalone="no"?>
<svg
   xmlns:dc="http://purl.org/dc/elements/1.1/"
   xmlns:cc="http://creativecommons.org/ns#"
   xmlns:rdf="http://www.w3.org/1999/02/22-rdf-syntax-ns#"
   xmlns:svg="http://www.w3.org/2000/svg"
   xmlns="http://www.w3.org/2000/svg"
   xmlns:sodipodi="http://sodipodi.sourceforge.net/DTD/sodipodi-0.dtd"
   xmlns:inkscape="http://www.inkscape.org/namespaces/inkscape"
   version="1.0"
   width="512.000000pt"
   height="512.000000pt"
   viewBox="0 0 512.000000 512.000000"
   preserveAspectRatio="xMidYMid meet"
   id="svg10"
   sodipodi:docname="ajouter-un-panier.svg"
   inkscape:version="1.0.2 (e86c870879, 2021-01-15, custom)">
  <metadata
     id="metadata16">
    <rdf:RDF>
      <cc:Work
         rdf:about="">
        <dc:format>image/svg+xml</dc:format>
        <dc:type
           rdf:resource="http://purl.org/dc/dcmitype/StillImage" />
      </cc:Work>
    </rdf:RDF>
  </metadata>
  <defs
     id="defs14" />
  <sodipodi:namedview
     pagecolor="#ffffff"
     bordercolor="#666666"
     borderopacity="1"
     objecttolerance="10"
     gridtolerance="10"
     guidetolerance="10"
     inkscape:pageopacity="0"
     inkscape:pageshadow="2"
     inkscape:window-width="1920"
     inkscape:window-height="1017"
     id="namedview12"
     showgrid="false"
     inkscape:zoom="1.2451172"
     inkscape:cx="341.33333"
     inkscape:cy="341.33333"
     inkscape:window-x="1272"
     inkscape:window-y="-8"
     inkscape:window-maximized="1"
     inkscape:current-layer="svg10"
     inkscape:document-rotation="0" />
  <g
     transform="matrix(-0.1,0,0,-0.1,511.60145,512)"
     fill="#000000"
     stroke="none"
     id="g8"
     style="fill:#fcca87;fill-opacity:1">
    <path
       d="M 4666,3953 C 4596,3750 4408,3203 4246,2735 L 3953,1885 H 2735 1516 l -416,1190 -416,1190 -337,3 -337,2 v -170 -170 l 217,-2 216,-3 416,-1190 416,-1190 h 1460 1460 l 457,1325 c 251,729 456,1329 454,1334 -2,7 -187,77 -292,110 -20,6 -29,-16 -148,-361 z"
       id="path2"
       style="fill:#fcca87;fill-opacity:1" />
    <path
       d="m 1756,1349 c -172,-41 -328,-201 -371,-380 -65,-278 115,-556 399,-616 210,-44 443,66 545,257 151,283 8,636 -297,730 -69,22 -204,26 -276,9 z m 223,-357 c 96,-71 95,-213 -3,-280 -112,-77 -266,8 -266,145 0,44 34,108 72,136 52,39 144,39 197,-1 z"
       id="path4"
       style="fill:#fcca87;fill-opacity:1" />
    <path
       d="m 3430,1337 c -212,-72 -350,-263 -350,-482 0,-269 199,-484 473,-511 248,-24 492,170 538,428 45,252 -132,520 -381,577 -79,18 -208,13 -280,-12 z m 260,-347 c 57,-41 84,-131 59,-197 -22,-59 -99,-112 -163,-113 -51,0 -114,38 -141,84 -94,161 93,334 245,226 z"
       id="path6"
       style="fill:#fcca87;fill-opacity:1" />
  </g>
  <path
     style="fill:#fcca87;fill-opacity:1;stroke-width:0.602353"
     d="m 384.43575,355.84121 c 0.27734,-0.74608 18.73989,-53.53534 41.02791,-117.30945 22.28801,-63.77411 40.77296,-116.66616 41.07766,-117.53788 l 0.55399,-1.58493 21.65072,-0.44494 21.65072,-0.44495 V 102.02153 85.523998 l -33.53233,0.155647 -33.53233,0.155648 -38.12171,109.025877 c -20.96695,59.96424 -39.65541,113.43059 -41.52992,118.81412 l -3.40818,9.78823 H 238.16221 116.05216 L 78.215103,213.6847 C 32.586521,81.299915 32.378599,80.71529 30.924439,80.71529 c -2.108595,0 -28.9359968,10.199948 -29.2961918,11.138595 -0.35829,0.933683 20.5358768,62.294695 70.4564378,206.913165 l 20.064765,58.12706 145.89104,0.15181 145.89103,0.15182 z"
     id="path18" />
  <path
     style="fill:#fcca87;fill-opacity:1;stroke-width:0.602353"
     d="m 329.57469,477.03821 c 5.09373,-0.6859 9.76711,-2.08626 14.97903,-4.48841 20.193,-9.30687 32.51003,-31.89217 29.07413,-53.31216 -2.82667,-17.62188 -16.4626,-34.24222 -33.20039,-40.46674 -4.4605,-1.65879 -5.93199,-1.8974 -13.32468,-2.16063 -9.77418,-0.34803 -15.62253,0.42958 -22.19538,2.95115 -6.06173,2.32549 -11.32347,5.7485 -16.39856,10.66805 -23.69594,22.96972 -19.70085,61.8385 8.13956,79.19066 9.75348,6.07908 22.48311,9.0243 32.92629,7.61808 z m -12.14493,-34.32794 c -3.69566,-1.38273 -8.25796,-5.76694 -9.86579,-9.48068 -1.29805,-2.99821 -1.2833,-9.96022 0.0275,-12.99097 1.58244,-3.65873 4.28083,-6.63986 7.74918,-8.56114 2.84976,-1.57861 3.77652,-1.77551 8.32666,-1.76909 4.08135,0.006 5.60877,0.27 7.52941,1.30251 7.16362,3.85112 11.1403,13.3971 8.63858,20.73685 -3.14284,9.22075 -13.38146,14.13887 -22.40557,10.76252 z"
     id="path20" />
  <path
     style="fill:#fcca87;fill-opacity:1;stroke-width:0.602353"
     d="m 160.48472,476.77052 c 20.39957,-3.87525 35.76124,-17.66201 41.28553,-37.05288 1.72021,-6.03811 1.5919,-20.35238 -0.23918,-26.68375 -3.25005,-11.23779 -10.68186,-21.55784 -20.21581,-28.0723 -4.6069,-3.14785 -12.3492,-6.50278 -17.39664,-7.5384 -6.78754,-1.39266 -18.31619,-1.27066 -24.28939,0.25702 -13.78718,3.52617 -25.44951,13.42277 -32.22277,27.34409 -7.20933,14.81763 -7.07723,29.92832 0.38756,44.33098 6.46705,12.47759 19.05545,22.8391 32.15567,26.46735 5.99106,1.65928 14.67907,2.06032 20.53503,0.94789 z m -14.19385,-34.3606 c -3.97427,-1.88013 -7.88066,-5.58873 -9.39125,-8.91576 -1.418,-3.12307 -1.51596,-8.79952 -0.21763,-12.60993 1.18342,-3.47314 5.03669,-7.9209 8.31048,-9.59262 3.53888,-1.80709 9.79936,-2.16808 13.44623,-0.77533 3.6551,1.3959 7.71491,5.16915 9.68169,8.99835 1.20775,2.35141 1.55871,3.91875 1.55654,6.95124 -0.009,12.513 -12.55618,21.0674 -23.38606,15.94405 z"
     id="path22" />
</svg>
