<?xml version="1.0" encoding="UTF-8" standalone="no"?>
<svg
   xmlns:dc="http://purl.org/dc/elements/1.1/"
   xmlns:cc="http://creativecommons.org/ns#"
   xmlns:rdf="http://www.w3.org/1999/02/22-rdf-syntax-ns#"
   xmlns:svg="http://www.w3.org/2000/svg"
   xmlns="http://www.w3.org/2000/svg"
   xmlns:sodipodi="http://sodipodi.sourceforge.net/DTD/sodipodi-0.dtd"
   xmlns:inkscape="http://www.inkscape.org/namespaces/inkscape"
   id="Capa_1"
   enable-background="new 0 0 512 512"
   height="512"
   viewBox="0 0 512 512"
   width="512"
   version="1.1"
   sodipodi:docname="pdf-2-v2.svg"
   inkscape:version="1.0.2 (e86c870879, 2021-01-15, custom)">
  <metadata
     id="metadata17">
    <rdf:RDF>
      <cc:Work
         rdf:about="">
        <dc:format>image/svg+xml</dc:format>
        <dc:type
           rdf:resource="http://purl.org/dc/dcmitype/StillImage" />
        <dc:title></dc:title>
      </cc:Work>
    </rdf:RDF>
  </metadata>
  <defs
     id="defs15" />
  <sodipodi:namedview
     pagecolor="#ffffff"
     bordercolor="#666666"
     borderopacity="1"
     objecttolerance="10"
     gridtolerance="10"
     guidetolerance="10"
     inkscape:pageopacity="0"
     inkscape:pageshadow="2"
     inkscape:window-width="1920"
     inkscape:window-height="1017"
     id="namedview13"
     showgrid="false"
     inkscape:zoom="1.6601562"
     inkscape:cx="256"
     inkscape:cy="207.81176"
     inkscape:window-x="1272"
     inkscape:window-y="-8"
     inkscape:window-maximized="1"
     inkscape:current-layer="Capa_1" />
  <g
     id="g10"
     style="fill:#422818;fill-opacity:1">
    <path
       d="m127.741 209h-31.741c-3.986 0-7.809 1.587-10.624 4.41s-4.389 6.651-4.376 10.638l.221 113.945c0 8.284 6.716 15 15 15s15-6.716 15-15v-34.597c6.133-.031 12.685-.058 16.52-.058 26.356 0 47.799-21.16 47.799-47.169s-21.443-47.169-47.799-47.169zm0 64.338c-3.869 0-10.445.027-16.602.059-.032-6.386-.06-13.263-.06-17.228 0-3.393-.017-10.494-.035-17.169h16.696c9.648 0 17.799 7.862 17.799 17.169s-8.15 17.169-17.798 17.169z"
       id="path2"
       style="fill:#422818;fill-opacity:1" />
    <path
       d="m255.33 209h-31.33c-3.983 0-7.803 1.584-10.617 4.403s-4.391 6.642-4.383 10.625c0 .001.223 110.246.224 110.646.015 3.979 1.609 7.789 4.433 10.592 2.811 2.79 6.609 4.354 10.567 4.354h.057c.947-.004 23.294-.089 32.228-.245 33.894-.592 58.494-30.059 58.494-70.065-.001-42.054-23.981-70.31-59.673-70.31zm.655 110.38c-3.885.068-10.569.123-16.811.163-.042-13.029-.124-67.003-.147-80.543h16.303c27.533 0 29.672 30.854 29.672 40.311 0 19.692-8.972 39.719-29.017 40.069z"
       id="path4"
       style="fill:#422818;fill-opacity:1" />
    <path
       d="m413.863 237.842c8.284 0 15-6.716 15-15s-6.716-15-15-15h-45.863c-8.284 0-15 6.716-15 15v113.158c0 8.284 6.716 15 15 15s15-6.716 15-15v-42.65h27.22c8.284 0 15-6.716 15-15s-6.716-15-15-15h-27.22v-25.508z"
       id="path6"
       style="fill:#422818;fill-opacity:1" />
    <path
       d="m458 145h-11v-4.279c0-19.282-7.306-37.607-20.572-51.601l-62.305-65.721c-14.098-14.87-33.936-23.399-54.428-23.399h-199.695c-24.813 0-45 20.187-45 45v100h-11c-24.813 0-45 20.187-45 45v180c0 24.813 20.187 45 45 45h11v52c0 24.813 20.187 45 45 45h292c24.813 0 45-20.187 45-45v-52h11c24.813 0 45-20.187 45-45v-180c0-24.813-20.187-45-45-45zm-363-100c0-8.271 6.729-15 15-15h199.695c12.295 0 24.198 5.117 32.657 14.04l62.305 65.721c7.96 8.396 12.343 19.391 12.343 30.96v4.279h-322zm322 422c0 8.271-6.729 15-15 15h-292c-8.271 0-15-6.729-15-15v-52h322zm56-97c0 8.271-6.729 15-15 15h-404c-8.271 0-15-6.729-15-15v-180c0-8.271 6.729-15 15-15h404c8.271 0 15 6.729 15 15z"
       id="path8"
       style="fill:#422818;fill-opacity:1" />
  </g>
  <path
     style="fill:#be965d;fill-opacity:1;stroke:none;stroke-width:0.602353"
     d="m 49.194247,383.92579 c -3.842625,-1.18058 -7.747229,-5.07571 -9.06493,-9.04294 -0.905972,-2.72763 -0.977793,-11.0034 -0.83331,-96.02093 l 0.158111,-93.03604 1.300129,-2.40941 c 1.702002,-3.15417 4.092003,-5.36552 7.433988,-6.87832 2.709964,-1.2267 2.757826,-1.22699 207.811765,-1.22699 205.05394,0 205.1018,2.9e-4 207.81176,1.22699 3.34199,1.5128 5.73199,3.72415 7.43399,6.87832 l 1.30013,2.40941 0.15814,92.73284 c 0.17812,104.4562 0.49711,96.98715 -4.34909,101.83334 -4.95217,4.95217 15.76958,4.51657 -212.61485,4.46952 C 77.502092,384.82485 51.74067,384.70814 49.194247,383.92579 Z M 103.0408,351.32235 c 3.6398,-1.84593 6.78047,-5.50669 7.76467,-9.05051 0.36568,-1.31669 0.62449,-9.77143 0.62646,-20.46478 l 0.003,-18.22118 h 10.18702 c 10.6875,0 16.1383,-0.71838 22.60436,-2.97911 20.4662,-7.15563 34.09541,-29.15087 31.12065,-50.22348 -2.34036,-16.57869 -13.01091,-30.81633 -28.09526,-37.48735 -7.85747,-3.47495 -11.33346,-3.87064 -34.04203,-3.87525 l -20.813493,-0.004 -3.13098,1.56023 c -1.722039,0.85813 -3.953042,2.55225 -4.957784,3.76471 -3.749865,4.5251 -3.643315,2.44206 -3.45895,67.62201 0.16611,58.72612 0.179218,59.29437 1.429674,61.98011 3.783825,8.12692 12.899335,11.36653 20.762303,7.37882 z m 269.34869,-0.78041 c 3.43339,-0.95354 7.14459,-4.13325 9.02477,-7.73232 l 1.68221,-3.22013 v -23.1218 -23.12181 h 14.83835 c 9.88949,0 15.66524,-0.24431 17.31765,-0.73253 3.30863,-0.97757 8.29861,-5.96755 9.27617,-9.27618 2.30115,-7.78837 -0.93071,-15.3306 -8.00158,-18.67335 -2.9173,-1.37916 -3.48878,-1.424 -18.22118,-1.4297 l -15.20941,-0.006 V 250.5787 237.92929 l 17.01647,-0.006 c 16.63226,-0.006 17.08447,-0.038 20.02824,-1.4297 7.07087,-3.34276 10.30273,-10.88498 8.00158,-18.67336 -0.97756,-3.30862 -5.96755,-8.29861 -9.27617,-9.27617 -3.50402,-1.0353 -52.37504,-1.0353 -55.87906,0 -3.30863,0.97756 -8.29861,5.96755 -9.27617,9.27617 -0.5539,1.87469 -0.72931,17.00462 -0.71931,62.04236 0.013,58.62036 0.0326,59.60595 1.24022,62.27364 3.21544,7.10337 10.57626,10.51089 18.15722,8.40547 z m -105.54714,-2.15815 c 13.21873,-2.71807 25.14322,-10.41438 33.78855,-21.8078 3.99253,-5.26164 8.50354,-14.2994 10.7234,-21.48423 6.13842,-19.86765 4.61608,-44.88963 -3.81582,-62.71856 -7.66212,-16.20126 -19.0864,-26.23852 -35.70363,-31.36885 -5.28957,-1.63308 -5.31117,-1.63452 -27.88191,-1.8562 -15.807,-0.15524 -23.28401,-0.0149 -24.90586,0.46739 -2.95006,0.87731 -7.4783,5.01468 -8.9036,8.13505 -1.04184,2.28086 -1.10055,5.54279 -1.10055,61.13882 0,57.77275 0.0199,58.77357 1.22556,61.44 2.05256,4.53971 5.89941,7.88343 10.49386,9.12138 3.18497,0.85818 40.97265,-0.0168 46.08,-1.067 z"
     id="path842" />
  <path
     style="fill:#be965d;fill-opacity:1;stroke:none;stroke-width:0.602353"
     d="m 111.43529,256.33462 v -17.2005 h 8.70447 c 10.5855,0 13.747,0.62167 17.89351,3.51854 2.42487,1.6941 3.68707,3.17542 5.22658,6.13393 1.87562,3.60444 2.00933,4.22707 1.76181,8.20385 -0.31556,5.06994 -2.0614,8.55343 -5.95864,11.88932 -3.61558,3.0948 -6.68943,3.8305 -17.83949,4.26975 l -9.78824,0.38561 z"
     id="path852" />
  <path
     style="fill:#be965d;fill-opacity:1;stroke:none;stroke-width:0.602353"
     d="m 239.13412,279.19059 v -40.05647 h 9.22584 c 5.07421,0 10.82158,0.29499 12.77193,0.65553 10.26165,1.89697 17.99343,9.99367 21.34728,22.35484 4.89876,18.05518 1.55132,38.13264 -8.09485,48.55165 -3.67183,3.96602 -8.63687,6.87722 -13.44456,7.88309 -1.7556,0.3673 -7.38007,0.66783 -12.49882,0.66783 h -9.30682 z"
     id="path854" />
  <path
     style="fill:#be965d;fill-opacity:1;stroke:none;stroke-width:0.602353"
     d="m 95.309376,92.611765 0.163565,-51.952941 1.696746,-2.886574 c 2.136796,-3.635205 5.628893,-6.190513 9.641853,-7.055329 2.24543,-0.483901 32.10858,-0.61842 106.72258,-0.480733 97.12887,0.179235 103.8306,0.257995 107.21882,1.260057 5.11544,1.512886 12.11176,4.92461 15.78454,7.69726 3.30003,2.491254 66.76649,69.014045 71.13977,74.565625 5.29442,6.72091 8.30987,15.12138 8.94987,24.93263 l 0.3831,5.87295 H 256.07802 95.14581 Z"
     id="path856" />
  <path
     style="fill:#be965d;fill-opacity:1;stroke:none;stroke-width:0.602353"
     d="m 105.21307,480.90461 c -3.79061,-1.1646 -7.711428,-5.04846 -9.043696,-8.95845 -0.870191,-2.55387 -0.997609,-6.37617 -0.997609,-29.9264 V 415.02118 H 256 416.82824 v 26.99858 c 0,30.69224 -0.0246,30.88362 -4.55599,35.41499 -4.84276,4.84275 9.01581,4.4527 -156.53217,4.40565 -128.71323,-0.0366 -147.9903,-0.15643 -150.52701,-0.93579 z"
     id="path858" />
</svg>
