<?xml version="1.0" encoding="UTF-8" standalone="no"?>
<svg
   xmlns:dc="http://purl.org/dc/elements/1.1/"
   xmlns:cc="http://creativecommons.org/ns#"
   xmlns:rdf="http://www.w3.org/1999/02/22-rdf-syntax-ns#"
   xmlns:svg="http://www.w3.org/2000/svg"
   xmlns="http://www.w3.org/2000/svg"
   xmlns:sodipodi="http://sodipodi.sourceforge.net/DTD/sodipodi-0.dtd"
   xmlns:inkscape="http://www.inkscape.org/namespaces/inkscape"
   version="1.1"
   id="Capa_1"
   x="0px"
   y="0px"
   width="45.402px"
   height="45.402px"
   viewBox="0 0 45.402 45.402"
   style="enable-background:new 0 0 45.402 45.402;"
   xml:space="preserve"
   sodipodi:docname="quantité-plus.svg"
   inkscape:version="1.0.2 (e86c870879, 2021-01-15, custom)"><metadata
   id="metadata41"><rdf:RDF><cc:Work
       rdf:about=""><dc:format>image/svg+xml</dc:format><dc:type
         rdf:resource="http://purl.org/dc/dcmitype/StillImage" /><dc:title /></cc:Work></rdf:RDF></metadata><defs
   id="defs39" /><sodipodi:namedview
   pagecolor="#ffffff"
   bordercolor="#666666"
   borderopacity="1"
   objecttolerance="10"
   gridtolerance="10"
   guidetolerance="10"
   inkscape:pageopacity="0"
   inkscape:pageshadow="2"
   inkscape:window-width="1920"
   inkscape:window-height="1017"
   id="namedview37"
   showgrid="false"
   inkscape:zoom="18.721642"
   inkscape:cx="22.701"
   inkscape:cy="22.701"
   inkscape:window-x="1272"
   inkscape:window-y="-8"
   inkscape:window-maximized="1"
   inkscape:current-layer="Capa_1"
   inkscape:document-rotation="0" />
<g
   id="g4"
   style="fill:#422818;fill-opacity:1;stroke:none">
	<path
   d="M41.267,18.557H26.832V4.134C26.832,1.851,24.99,0,22.707,0c-2.283,0-4.124,1.851-4.124,4.135v14.432H4.141   c-2.283,0-4.139,1.851-4.138,4.135c-0.001,1.141,0.46,2.187,1.207,2.934c0.748,0.749,1.78,1.222,2.92,1.222h14.453V41.27   c0,1.142,0.453,2.176,1.201,2.922c0.748,0.748,1.777,1.211,2.919,1.211c2.282,0,4.129-1.851,4.129-4.133V26.857h14.435   c2.283,0,4.134-1.867,4.133-4.15C45.399,20.425,43.548,18.557,41.267,18.557z"
   id="path2"
   style="fill:#422818;fill-opacity:1;stroke:none" />
</g>
<g
   id="g6"
   style="fill:#422818;fill-opacity:1;stroke:none">
</g>
<g
   id="g8"
   style="fill:#422818;fill-opacity:1;stroke:none">
</g>
<g
   id="g10"
   style="fill:#422818;fill-opacity:1;stroke:none">
</g>
<g
   id="g12"
   style="fill:#422818;fill-opacity:1;stroke:none">
</g>
<g
   id="g14"
   style="fill:#422818;fill-opacity:1;stroke:none">
</g>
<g
   id="g16"
   style="fill:#422818;fill-opacity:1;stroke:none">
</g>
<g
   id="g18"
   style="fill:#422818;fill-opacity:1;stroke:none">
</g>
<g
   id="g20"
   style="fill:#422818;fill-opacity:1;stroke:none">
</g>
<g
   id="g22"
   style="fill:#422818;fill-opacity:1;stroke:none">
</g>
<g
   id="g24"
   style="fill:#422818;fill-opacity:1;stroke:none">
</g>
<g
   id="g26"
   style="fill:#422818;fill-opacity:1;stroke:none">
</g>
<g
   id="g28"
   style="fill:#422818;fill-opacity:1;stroke:none">
</g>
<g
   id="g30"
   style="fill:#422818;fill-opacity:1;stroke:none">
</g>
<g
   id="g32"
   style="fill:#422818;fill-opacity:1;stroke:none">
</g>
<g
   id="g34"
   style="fill:#422818;fill-opacity:1;stroke:none">
</g>
<path
   style="fill:#422818;fill-opacity:1;stroke-width:0.0534141;stroke:none"
   d="m 22.17716,45.346883 c -1.652531,-0.225174 -2.978446,-1.393677 -3.445676,-3.03661 l -0.115716,-0.406897 -0.01524,-7.544745 -0.01524,-7.544744 h -7.521431 c -8.5465231,0 -7.8675445,0.03525 -8.8225701,-0.458003 C 1.186439,25.811079 0.405207,24.800916 0.1269022,23.621911 0.01582631,23.151351 0.0175071,22.251839 0.13036961,21.766253 0.24063181,21.291855 0.61703087,20.52075 0.93137995,20.125274 1.4237543,19.505827 2.2483558,18.962211 3.0713118,18.714529 c 0.301356,-0.0907 0.7739088,-0.09742 7.9172282,-0.112671 l 7.596744,-0.01622 0.01524,-7.543508 0.01524,-7.5435083 0.118024,-0.4159206 c 0.416258,-1.4669034 1.588388,-2.60713401 3.038207,-2.95552288 0.526167,-0.12643688358 1.42586,-0.11446901 1.957169,0.0260346 1.576563,0.41691949 2.770504,1.72555598 3.027833,3.31870188 0.0372,0.2303313 0.05622,2.8327232 0.05648,7.7316933 l 4.03e-4,7.384502 7.464623,9.3e-4 c 8.060454,10e-4 7.781215,-0.0083 8.504313,0.283756 1.233819,0.498362 2.156318,1.571925 2.48631,2.893456 0.131026,0.524725 0.121326,1.418907 -0.02129,1.962915 -0.339362,1.294461 -1.262425,2.33212 -2.519209,2.83196 -0.18949,0.07536 -0.487151,0.163064 -0.661468,0.194891 -0.217769,0.03976 -2.653761,0.05787 -7.785108,0.05787 h -7.468167 l -4.27e-4,7.384502 c -2.67e-4,4.848802 -0.01945,7.501901 -0.05588,7.726395 -0.307415,1.894629 -1.879382,3.3115 -3.816242,3.439716 -0.235022,0.01556 -0.578914,0.0076 -0.764204,-0.01762 z"
   id="path866" /></svg>
