<?xml version="1.0" encoding="UTF-8" standalone="no"?>
<svg
   xmlns:dc="http://purl.org/dc/elements/1.1/"
   xmlns:cc="http://creativecommons.org/ns#"
   xmlns:rdf="http://www.w3.org/1999/02/22-rdf-syntax-ns#"
   xmlns:svg="http://www.w3.org/2000/svg"
   xmlns="http://www.w3.org/2000/svg"
   xmlns:sodipodi="http://sodipodi.sourceforge.net/DTD/sodipodi-0.dtd"
   xmlns:inkscape="http://www.inkscape.org/namespaces/inkscape"
   version="1.1"
   id="Capa_1"
   x="0px"
   y="0px"
   width="32.75px"
   height="32.75px"
   viewBox="0 0 32.75 32.75"
   style="enable-background:new 0 0 32.75 32.75;"
   xml:space="preserve"
   sodipodi:docname="up.svg"
   inkscape:version="1.0.2 (e86c870879, 2021-01-15, custom)"><metadata
   id="metadata41"><rdf:RDF><cc:Work
       rdf:about=""><dc:format>image/svg+xml</dc:format><dc:type
         rdf:resource="http://purl.org/dc/dcmitype/StillImage" /><dc:title /></cc:Work></rdf:RDF></metadata><defs
   id="defs39" /><sodipodi:namedview
   pagecolor="#ffffff"
   bordercolor="#666666"
   borderopacity="1"
   objecttolerance="10"
   gridtolerance="10"
   guidetolerance="10"
   inkscape:pageopacity="0"
   inkscape:pageshadow="2"
   inkscape:window-width="1920"
   inkscape:window-height="1017"
   id="namedview37"
   showgrid="false"
   inkscape:zoom="9.1761947"
   inkscape:cx="-8.4647205"
   inkscape:cy="17.488433"
   inkscape:window-x="1272"
   inkscape:window-y="-8"
   inkscape:window-maximized="1"
   inkscape:current-layer="Capa_1"
   inkscape:document-rotation="0" />
<g
   id="g4"
   style="fill:#fcca87;fill-opacity:1">
	<path
   d="M30.434,15.938c-0.791,0.933-1.917,1.411-3.052,1.411c-0.913,0-1.834-0.312-2.587-0.951l-4.421-3.753V28.75   c0,2.209-1.791,4-4,4c-2.209,0-4-1.791-4-4V12.646l-4.42,3.754c-1.683,1.431-4.208,1.226-5.639-0.459   c-1.43-1.684-1.224-4.208,0.46-5.638l11.01-9.351c1.493-1.27,3.686-1.27,5.178,0l11.011,9.351   C31.658,11.73,31.863,14.255,30.434,15.938z"
   id="path2"
   style="fill:#fcca87;fill-opacity:1" />
</g>
<g
   id="g6"
   style="fill:#fcca87;fill-opacity:1">
</g>
<g
   id="g8"
   style="fill:#fcca87;fill-opacity:1">
</g>
<g
   id="g10"
   style="fill:#fcca87;fill-opacity:1">
</g>
<g
   id="g12"
   style="fill:#fcca87;fill-opacity:1">
</g>
<g
   id="g14"
   style="fill:#fcca87;fill-opacity:1">
</g>
<g
   id="g16"
   style="fill:#fcca87;fill-opacity:1">
</g>
<g
   id="g18"
   style="fill:#fcca87;fill-opacity:1">
</g>
<g
   id="g20"
   style="fill:#fcca87;fill-opacity:1">
</g>
<g
   id="g22"
   style="fill:#fcca87;fill-opacity:1">
</g>
<g
   id="g24"
   style="fill:#fcca87;fill-opacity:1">
</g>
<g
   id="g26"
   style="fill:#fcca87;fill-opacity:1">
</g>
<g
   id="g28"
   style="fill:#fcca87;fill-opacity:1">
</g>
<g
   id="g30"
   style="fill:#fcca87;fill-opacity:1">
</g>
<g
   id="g32"
   style="fill:#fcca87;fill-opacity:1">
</g>
<g
   id="g34"
   style="fill:#fcca87;fill-opacity:1">
</g>
<path
   style="fill:#fcca87;stroke-width:0.0385294;fill-opacity:1"
   d="m 15.932392,32.707359 c -1.685642,-0.177415 -3.109511,-1.470174 -3.453166,-3.1352 -0.06866,-0.332679 -0.07177,-0.703744 -0.07225,-8.644267 -3.08e-4,-4.782502 -0.01492,-8.291227 -0.03453,-8.283823 -0.01871,0.0071 -1.072898,0.895067 -2.342632,1.973341 -1.2814818,1.088249 -2.4333567,2.036412 -2.5889974,2.131125 -0.323523,0.196877 -0.7293464,0.366596 -1.1528906,0.48215 -0.2435128,0.06644 -0.4069457,0.08095 -0.9130731,0.08107 -0.541559,1.16e-4 -0.6619129,-0.01198 -0.9904298,-0.09962 -1.78747,-0.476871 -2.9973643,-2.035652 -2.9973643,-3.861687 0,-1.128439 0.4713203,-2.193227 1.3040387,-2.946031 C 3.5451661,9.6323052 13.937091,0.84578539 14.206253,0.6681823 14.580317,0.42136212 14.843259,0.30013037 15.277396,0.17432226 16.3876,-0.14740221 17.583515,0.03476693 18.551545,0.67306078 18.812867,0.84536997 29.189717,9.6214676 30.059109,10.405447 c 2.088729,1.883523 1.592834,5.294108 -0.949589,6.530925 -0.556992,0.27096 -1.004636,0.371613 -1.676579,0.376978 -0.572798,0.0046 -0.809704,-0.02815 -1.27147,-0.175631 -0.345491,-0.110343 -0.835202,-0.355767 -1.089337,-0.545932 -0.116862,-0.08745 -1.213139,-1.008566 -2.436173,-2.046934 -1.223033,-1.038368 -2.238932,-1.893644 -2.257552,-1.900614 -0.01937,-0.0073 -0.0382,3.586276 -0.044,8.399412 l -0.01014,8.412084 -0.08931,0.308236 c -0.110951,0.382943 -0.368396,0.933302 -0.587506,1.255956 -0.243679,0.358834 -0.702001,0.803868 -1.082767,1.051377 -0.568281,0.369398 -1.129991,0.568319 -1.804392,0.638999 -0.405737,0.04252 -0.395564,0.04256 -0.827902,-0.0029 z"
   id="path43" /><path
   style="fill:#fcca87;stroke-width:0.0385294;fill-opacity:1"
   d="m 15.853126,32.707639 c -0.381297,-0.04931 -0.88635,-0.20815 -1.261137,-0.39662 -1.134216,-0.570363 -1.922541,-1.625421 -2.147824,-2.874548 -0.01338,-0.07417 -0.03389,-3.875577 -0.04558,-8.447574 -0.01169,-4.571996 -0.03204,-8.31252 -0.04522,-8.312274 -0.01317,2.31e-4 -0.925541,0.76184 -2.027483,1.692433 -2.3033057,1.94515 -2.1416655,1.809835 -2.3791909,1.991707 -0.1006581,0.07707 -0.1830147,0.155153 -0.1830147,0.173509 0,0.01836 -0.01917,0.03337 -0.0426,0.03337 -0.02343,0 -0.095517,0.04453 -0.1601934,0.09895 -0.2455237,0.206595 -0.9028247,0.487239 -1.3961776,0.596119 -0.1059559,0.02338 -0.478728,0.04187 -0.8283824,0.04108 -0.557172,-0.0013 -0.680047,-0.01349 -0.9943063,-0.09892 C 2.8870235,16.8093 1.7976814,15.663409 1.4574534,14.170562 1.3598604,13.742345 1.3693989,12.907453 1.4768771,12.470433 1.6329408,11.835858 1.8866374,11.316476 2.2844236,10.817177 2.3842259,10.691905 2.8733307,10.238998 3.3713234,9.8107155 4.3933031,8.9317945 11.880459,2.5800833 12.347053,2.1961762 c 0.09014,-0.074169 0.203733,-0.1695294 0.25242,-0.2119118 0.04869,-0.042382 0.246241,-0.2048295 0.439009,-0.3609937 0.192769,-0.1561641 0.350489,-0.2992046 0.350489,-0.3178676 0,-0.018663 0.01837,-0.033933 0.04082,-0.033933 0.03355,0 0.509056,-0.37862837 0.777026,-0.61872452 0.124769,-0.11179077 0.71907,-0.38214366 1.052356,-0.47872611 0.966705,-0.28014012 1.946676,-0.19482068 2.854333,0.24850744 0.215484,0.10524895 0.415281,0.21361535 0.443993,0.24081422 0.11373,0.10773371 0.723027,0.60812897 0.740478,0.60812897 0.01023,0 0.06946,0.04768 0.131633,0.1059559 0.06217,0.058276 0.167443,0.1493015 0.233936,0.2022794 0.06649,0.052978 0.171077,0.1396691 0.232408,0.1926471 0.06133,0.052978 0.178456,0.1505282 0.260278,0.2167784 0.374768,0.3034465 7.438363,6.2938889 8.972002,7.6089097 0.635735,0.5451124 1.236262,1.0922564 1.334505,1.2158744 0.408194,0.513632 0.650848,1.009385 0.810807,1.656518 0.126349,0.511161 0.117527,1.314114 -0.02025,1.843243 -0.37628,1.445085 -1.513993,2.573845 -2.934243,2.911153 -0.423978,0.100695 -1.405945,0.112921 -1.795057,0.02235 -0.479405,-0.111589 -0.987505,-0.333297 -1.383556,-0.603712 -0.116551,-0.07958 -1.226198,-1.004601 -2.465882,-2.055605 -1.239684,-1.051003 -2.266974,-1.911089 -2.282868,-1.9113 -0.01589,-1.93e-4 -0.03129,1.087589 -0.03421,2.417335 -0.0029,1.329746 -0.01646,5.139824 -0.03008,8.466838 l -0.02476,6.049118 -0.107375,0.308235 c -0.38338,1.100545 -1.069239,1.906148 -2.037248,2.392931 -0.70921,0.356642 -1.526539,0.497286 -2.304885,0.39662 z"
   id="path24" /><path
   style="fill:#fcca87;fill-opacity:1;stroke-width:0.108978"
   d="m 15.108699,32.549343 c -1.117783,-0.398981 -1.940434,-1.156857 -2.452723,-2.259599 l -0.251479,-0.541327 -0.03044,-8.473011 c -0.01675,-4.660156 -0.05657,-8.473012 -0.0885,-8.473012 -0.03193,0 -1.072589,0.862819 -2.3125748,1.917374 C 8.4775767,15.991543 7.4925679,16.745613 7.0475826,16.959292 3.7107313,18.561629 0.16132608,15.029369 1.7539684,11.691248 1.9342393,11.313407 2.2220782,10.84876 2.3936103,10.6587 2.7281871,10.287985 13.433671,1.1967628 14.128763,0.69307115 c 0.616875,-0.44701271 1.429173,-0.68491608 2.307906,-0.67593334 1.450282,0.01482531 1.454616,0.01775561 7.158851,4.84094919 6.697218,5.662807 7.005745,5.947159 7.431856,6.849539 0.29411,0.622842 0.336848,0.830872 0.336848,1.639657 0,0.80902 -0.04255,1.016001 -0.336046,1.634664 -0.427099,0.900287 -1.104305,1.577493 -2.004592,2.004593 -0.618663,0.293495 -0.825644,0.336045 -1.634665,0.336045 -1.38338,0 -1.856208,-0.266954 -4.605382,-2.600147 -1.244299,-1.056024 -2.286398,-1.920044 -2.315775,-1.920044 -0.02938,0 -0.05341,3.622262 -0.05341,8.049471 0,4.687403 -0.0437,8.2799 -0.104626,8.601165 -0.243015,1.28141 -1.113575,2.409676 -2.267186,2.938325 -0.833783,0.382086 -2.113015,0.450973 -2.933842,0.157988 z"
   id="path849" /><path
   style="fill:#422818;stroke-width:0.108978;fill-opacity:1"
   d="m 14.953752,32.495209 c -1.126745,-0.475416 -1.768133,-1.089828 -2.290643,-2.194302 l -0.312929,-0.661468 -8.6e-5,-8.303112 c -5e-5,-4.846104 -0.04121,-8.328531 -0.09886,-8.364162 -0.05433,-0.03358 -1.096426,0.777725 -2.3157747,1.802892 -2.4664692,2.073679 -3.150711,2.486123 -4.2740731,2.576295 -2.7222222,0.218515 -4.91008953,-2.434961 -4.1597881,-5.045047 0.3893408,-1.354406 -0.03997,-0.943883 9.0514809,-8.6553549 1.917347,-1.6263151 3.706765,-3.07113335 3.976485,-3.21070717 0.671302,-0.34738374 1.637438,-0.53134149 2.323018,-0.44231576 1.234118,0.16025605 1.144454,0.09286948 9.119633,6.85375863 4.138739,3.5085792 4.687678,4.0375902 5.079652,4.8952342 0.260141,0.569194 0.3084,0.818155 0.310213,1.600363 0.0019,0.814424 -0.03919,1.013861 -0.340079,1.651147 -0.434525,0.920333 -1.062477,1.548033 -1.981929,1.981136 -0.632828,0.298091 -0.842421,0.341683 -1.651147,0.343416 -1.368585,0.0029 -1.854734,-0.268291 -4.562241,-2.545271 -1.220573,-1.026486 -2.262671,-1.866339 -2.315775,-1.866339 -0.05522,0 -0.09655,3.465836 -0.09655,8.095938 0,8.911068 0.0034,8.861162 -0.668725,9.908528 -0.741881,1.156121 -1.801637,1.742347 -3.25447,1.800279 -0.782426,0.0312 -1.021233,-0.0031 -1.537406,-0.220908 z"
   id="path26" /></svg>
