<?xml version="1.0" encoding="UTF-8" standalone="no"?>
<svg
   xmlns:dc="http://purl.org/dc/elements/1.1/"
   xmlns:cc="http://creativecommons.org/ns#"
   xmlns:rdf="http://www.w3.org/1999/02/22-rdf-syntax-ns#"
   xmlns:svg="http://www.w3.org/2000/svg"
   xmlns="http://www.w3.org/2000/svg"
   xmlns:sodipodi="http://sodipodi.sourceforge.net/DTD/sodipodi-0.dtd"
   xmlns:inkscape="http://www.inkscape.org/namespaces/inkscape"
   height="512pt"
   viewBox="0 -32 512.016 512"
   width="512pt"
   version="1.1"
   id="svg10"
   sodipodi:docname="user-v2.svg"
   inkscape:version="1.0.2 (e86c870879, 2021-01-15, custom)">
  <metadata
     id="metadata16">
    <rdf:RDF>
      <cc:Work
         rdf:about="">
        <dc:format>image/svg+xml</dc:format>
        <dc:type
           rdf:resource="http://purl.org/dc/dcmitype/StillImage" />
        <dc:title />
      </cc:Work>
    </rdf:RDF>
  </metadata>
  <defs
     id="defs14" />
  <sodipodi:namedview
     pagecolor="#ffffff"
     bordercolor="#666666"
     borderopacity="1"
     objecttolerance="10"
     gridtolerance="10"
     guidetolerance="10"
     inkscape:pageopacity="0"
     inkscape:pageshadow="2"
     inkscape:window-width="1920"
     inkscape:window-height="1017"
     id="namedview12"
     showgrid="false"
     inkscape:zoom="1.2451172"
     inkscape:cx="341.33333"
     inkscape:cy="341.33333"
     inkscape:window-x="1272"
     inkscape:window-y="-8"
     inkscape:window-maximized="1"
     inkscape:current-layer="svg10"
     inkscape:document-rotation="0" />
  <path
     d="m192 213.339844c-58.816406 0-106.667969-47.847656-106.667969-106.664063 0-58.816406 47.851563-106.6679685 106.667969-106.6679685s106.667969 47.8515625 106.667969 106.6679685c0 58.816407-47.851563 106.664063-106.667969 106.664063zm0-181.332032c-41.171875 0-74.667969 33.492188-74.667969 74.667969 0 41.171875 33.496094 74.664063 74.667969 74.664063s74.667969-33.492188 74.667969-74.664063c0-41.175781-33.496094-74.667969-74.667969-74.667969zm0 0"
     id="path2"
     style="fill:#fcca87;fill-opacity:1;stroke:none" />
  <path
     d="m368 448.007812h-352c-8.832031 0-16-7.167968-16-16v-74.667968c0-55.871094 45.460938-101.332032 101.332031-101.332032h181.335938c55.871093 0 101.332031 45.460938 101.332031 101.332032v74.667968c0 8.832032-7.167969 16-16 16zm-336-32h320v-58.667968c0-38.226563-31.105469-69.332032-69.332031-69.332032h-181.335938c-38.226562 0-69.332031 31.105469-69.332031 69.332032zm0 0"
     id="path4"
     style="fill:#fcca87;fill-opacity:1;stroke:none" />
  <path
     d="m496 218.675781h-181.332031c-8.832031 0-16-7.167969-16-16s7.167969-16 16-16h181.332031c8.832031 0 16 7.167969 16 16s-7.167969 16-16 16zm0 0"
     id="path6"
     style="fill:#fcca87;fill-opacity:1;stroke:none" />
  <path
     d="m410.667969 304.007812c-4.097657 0-8.191407-1.558593-11.308594-4.691406-6.25-6.253906-6.25-16.386718 0-22.636718l74.027344-74.027344-74.027344-74.027344c-6.25-6.25-6.25-16.382812 0-22.632812s16.382813-6.25 22.636719 0l85.332031 85.332031c6.25 6.25 6.25 16.386719 0 22.636719l-85.332031 85.332031c-3.136719 3.15625-7.234375 4.714843-11.328125 4.714843zm0 0"
     id="path8"
     style="fill:#fcca87;fill-opacity:1;stroke:none" />
  <path
     style="fill:#fcca87;stroke:none;stroke-width:0.803137;fill-opacity:1"
     d="m 240.94118,325.98213 c -9.97889,-1.13703 -19.16126,-3.15474 -29.14276,-6.40377 -49.28829,-16.04357 -85.85506,-58.08014 -95.48275,-109.76545 -2.09952,-11.27105 -2.50856,-35.0055 -0.78538,-45.57134 4.84251,-29.69234 17.54108,-55.57154 37.64584,-76.720745 20.7015,-21.776947 45.23273,-35.410046 75.31642,-41.856694 7.89233,-1.69125 10.84735,-1.890053 27.70823,-1.864108 16.53234,0.02544 19.91989,0.254997 27.30667,1.85044 57.45214,12.408857 99.36423,54.321371 111.76329,111.764437 1.58714,7.353 1.82412,10.79853 1.85044,26.9051 0.0265,16.20468 -0.19792,19.59859 -1.82815,27.64874 -7.26155,35.8578 -27.58746,67.31276 -57.27182,88.62991 -8.85889,6.36181 -27.01969,15.5918 -37.24631,18.92998 -19.20527,6.26898 -40.90883,8.60986 -59.83372,6.4535 z m 32.92862,-42.98988 c 38.92093,-6.81382 70.58872,-37.31456 79.67936,-76.74295 2.34247,-10.15984 2.53279,-30.73641 0.37741,-40.80303 -8.50966,-39.74393 -38.32048,-69.78442 -77.77776,-78.376993 -9.01683,-1.963586 -26.01227,-2.353536 -35.39785,-0.812183 -40.34737,6.626072 -72.45219,36.321196 -81.79387,75.654666 -6.38544,26.88613 -1.32823,55.08185 14.01269,78.12571 22.23408,33.3982 61.06412,49.92877 100.90002,42.95478 z"
     id="path18"
     transform="matrix(0.75002342,0,0,0.75002342,0,-32.008)" />
  <path
     style="fill:#fcca87;stroke:none;stroke-width:0.803137;fill-opacity:1"
     d="m 538.47071,445.44653 c -4.46249,-2.07801 -7.874,-5.63618 -10.11294,-10.54771 -2.04035,-4.47586 -1.95867,-12.56346 0.17439,-17.26745 1.23578,-2.72524 11.44333,-13.43729 41.50329,-43.55456 l 39.86445,-39.94045 -97.94133,-0.21642 -97.94132,-0.21641 -4.31304,-2.38884 c -4.37867,-2.42517 -6.78006,-4.99508 -9.40012,-10.05979 -2.11165,-4.0819 -1.98809,-13.02855 0.23847,-17.26745 2.33024,-4.43628 6.37514,-8.36763 10.66371,-10.36436 3.5979,-1.67515 4.05185,-1.68369 101.15815,-1.9022 l 97.54401,-0.2195 -39.87444,-39.93736 c -30.14625,-30.19382 -40.27287,-40.8191 -41.50756,-43.55148 -1.09849,-2.43099 -1.63889,-5.33719 -1.65075,-8.8776 -0.0392,-11.69095 8.67238,-20.77477 19.96761,-20.82084 9.53493,-0.0389 5.51819,-3.52158 70.76926,61.3598 38.23071,38.0141 60.69559,60.93661 62.22083,63.48831 2.04566,3.42237 2.38592,4.8009 2.37879,9.63765 -0.007,4.65188 -0.40199,6.36392 -2.24785,9.73907 -3.31628,6.06381 -118.34692,120.86138 -123.3902,123.14019 -5.15972,2.33142 -12.80824,2.23315 -18.10341,-0.2326 z"
     id="path20"
     transform="matrix(0.75002342,0,0,0.75002342,0,-32.008)" />
  <path
     style="fill:#fcca87;stroke:none;stroke-width:0.803137;fill-opacity:1"
     d="M 12.467581,637.64029 C 8.1372919,635.48035 4.3628858,631.67372 2.1999176,627.28499 l -1.79834897,-3.64891 0.009067,-58.62902 c 0.008779,-56.76638 0.0648,-58.93661 1.76334507,-68.31073 C 12.110741,441.85622 51.610876,400.44412 106.42858,387.39538 l 9.62475,-2.29107 h 139.34432 c 131.77414,0 139.737,0.0797 146.57255,1.46736 57.70662,11.71467 100.87738,57.55061 108.42372,115.11735 1.77387,13.53184 1.78223,118.90296 0.01,123.92647 -1.76208,4.99425 -5.52748,9.2702 -10.22444,11.6108 l -4.15584,2.07096 -240.18113,-0.032 C 17.971875,639.23356 15.630452,639.21793 12.467581,637.64029 Z M 469.62336,552.35765 c -0.29756,-42.08318 -0.43276,-45.6714 -1.97454,-52.40471 -8.24011,-35.98638 -34.93737,-62.9403 -70.89902,-71.58061 -5.65161,-1.35788 -14.13128,-1.46361 -137.33647,-1.71232 -118.59483,-0.2394 -132.08544,-0.1378 -139.28889,1.049 -35.945207,5.92213 -64.895957,32.30233 -74.876593,68.22824 l -2.231208,8.03138 -0.266889,46.78274 -0.266889,46.78275 H 256.21283 469.9428 Z"
     id="path22"
     transform="matrix(0.75002342,0,0,0.75002342,0,-32.008)" />
</svg>
