<?xml version="1.0" encoding="UTF-8" standalone="no"?>
<svg
   xmlns:dc="http://purl.org/dc/elements/1.1/"
   xmlns:cc="http://creativecommons.org/ns#"
   xmlns:rdf="http://www.w3.org/1999/02/22-rdf-syntax-ns#"
   xmlns:svg="http://www.w3.org/2000/svg"
   xmlns="http://www.w3.org/2000/svg"
   xmlns:sodipodi="http://sodipodi.sourceforge.net/DTD/sodipodi-0.dtd"
   xmlns:inkscape="http://www.inkscape.org/namespaces/inkscape"
   height="365.696pt"
   viewBox="0 0 365.696 365.696"
   width="365.696pt"
   version="1.1"
   id="svg4"
   sodipodi:docname="x.svg"
   inkscape:version="1.0.2 (e86c870879, 2021-01-15, custom)">
  <metadata
     id="metadata10">
    <rdf:RDF>
      <cc:Work
         rdf:about="">
        <dc:format>image/svg+xml</dc:format>
        <dc:type
           rdf:resource="http://purl.org/dc/dcmitype/StillImage" />
      </cc:Work>
    </rdf:RDF>
  </metadata>
  <defs
     id="defs8" />
  <sodipodi:namedview
     pagecolor="#ffffff"
     bordercolor="#666666"
     borderopacity="1"
     objecttolerance="10"
     gridtolerance="10"
     guidetolerance="10"
     inkscape:pageopacity="0"
     inkscape:pageshadow="2"
     inkscape:window-width="1920"
     inkscape:window-height="1017"
     id="namedview6"
     showgrid="false"
     inkscape:zoom="1.7432512"
     inkscape:cx="243.79734"
     inkscape:cy="243.79734"
     inkscape:window-x="1272"
     inkscape:window-y="-8"
     inkscape:window-maximized="1"
     inkscape:current-layer="svg4"
     inkscape:document-rotation="0" />
  <path
     d="m243.1875 182.859375 113.132812-113.132813c12.5-12.5 12.5-32.765624 0-45.246093l-15.082031-15.082031c-12.503906-12.503907-32.769531-12.503907-45.25 0l-113.128906 113.128906-113.132813-113.152344c-12.5-12.5-32.765624-12.5-45.246093 0l-15.105469 15.082031c-12.5 12.503907-12.5 32.769531 0 45.25l113.152344 113.152344-113.128906 113.128906c-12.503907 12.503907-12.503907 32.769531 0 45.25l15.082031 15.082031c12.5 12.5 32.765625 12.5 45.246093 0l113.132813-113.132812 113.128906 113.132812c12.503907 12.5 32.769531 12.5 45.25 0l15.082031-15.082031c12.5-12.503906 12.5-32.769531 0-45.25zm0 0"
     id="path2"
     style="fill:#550000" />
  <path
     style="fill:#422818;stroke-width:0.573641;fill-opacity:1"
     d="M 57.099588,486.98723 C 51.819003,486.1706 47.744462,484.83592 42.736242,482.2823 38.532565,480.1389 36.86646,478.66171 22.899716,464.69497 8.8207956,450.61604 7.467616,449.0865 5.24218,444.73609 1.8624948,438.12929 0.48339649,432.46844 0.45058791,425.06783 0.41044579,416.01299 2.6628367,408.35038 7.4798936,401.15421 8.4962795,399.63584 44.076128,363.61031 86.546222,321.09747 L 163.76458,243.80141 85.729943,165.64081 C 9.4769317,89.264717 7.6400249,87.37355 5.273682,82.807862 1.7901721,76.086685 0.44704344,70.522817 0.44704344,62.81367 0.44704344,55.134552 1.7622175,49.661422 5.24218,42.858589 7.467616,38.508178 8.8207956,36.978636 22.899716,22.899716 36.978636,8.8207956 38.508178,7.467616 42.858589,5.24218 49.661422,1.7622175 55.134552,0.44704344 62.81367,0.44704344 c 7.670122,0 13.139913,1.31227626 19.955082,4.78749216 4.647092,2.3696614 5.779545,3.4692447 82.873118,80.4673214 l 78.16164,78.064823 77.29501,-77.221192 c 42.51226,-42.471657 78.53732,-78.0519786 80.05569,-79.0673819 7.19102,-4.8089526 14.80968,-7.0403405 23.91362,-7.0039263 7.41829,0.0296722 13.09631,1.406141 19.66826,4.7680002 4.35041,2.225436 5.87995,3.5786156 19.95888,17.657536 14.07891,14.07892 15.4321,15.608462 17.65753,19.958873 3.48984,6.82213 4.7977,12.277826 4.78372,19.955081 -0.014,7.691043 -1.33344,13.203811 -4.77608,19.955082 -2.36966,4.647087 -3.46925,5.779557 -80.46423,82.870028 l -78.06174,78.15856 78.06174,78.15856 c 76.99498,77.09047 78.09457,78.22294 80.46423,82.87003 3.47522,6.81517 4.7875,12.28496 4.7875,19.95508 0,7.67912 -1.31518,13.15225 -4.79514,19.95508 -2.22543,4.35041 -3.57862,5.87995 -17.65753,19.95888 -14.07893,14.07891 -15.60847,15.4321 -19.95888,17.65753 -6.82213,3.48984 -12.27783,4.7977 -19.95508,4.78372 -9.31154,-0.017 -16.18638,-2.0815 -23.80609,-7.14906 -1.41976,-0.94423 -37.36414,-36.46631 -79.8764,-78.93797 L 243.80351,323.828 165.64187,401.89282 c -77.093573,76.99808 -78.226026,78.09766 -82.873118,80.46732 -7.900962,4.02889 -17.89184,5.82983 -25.669164,4.62709 z"
     id="path7"
     transform="scale(0.74999995)" />
</svg>
